<svg width="747" height="689" viewBox="0 0 747 689" fill="none" xmlns="http://www.w3.org/2000/svg">
<g opacity="0.4">
<g opacity="0.26" filter="url(#filter0_d_354_11568)">
<path d="M568.954 33.645C583.868 24.7792 604.491 28.4825 625.884 41.9097C647.251 55.3213 669.249 78.3609 686.786 107.861C704.323 137.361 714.053 167.694 715.626 192.873C717.201 218.081 710.602 237.967 695.688 246.833C680.773 255.7 660.149 251.996 638.757 238.569C617.389 225.157 595.391 202.118 577.854 172.618C560.318 143.118 550.588 112.785 549.015 87.606C547.44 62.3978 554.04 42.5111 568.954 33.645Z" stroke="white" shape-rendering="crispEdges"/>
</g>
<g opacity="0.3" filter="url(#filter1_d_354_11568)">
<path d="M441.735 38.3662C463.201 25.6058 493.029 31.2787 524.011 51.0527C554.965 70.8094 586.929 104.564 612.539 147.644C638.149 190.723 652.529 234.93 655.096 271.562C657.665 308.227 648.398 337.141 626.933 349.901C605.467 362.662 575.639 356.989 544.657 337.215C513.703 317.458 481.739 283.704 456.129 240.624C430.519 197.544 416.138 153.337 413.571 116.705C411.002 80.0404 420.27 51.1267 441.735 38.3662Z" stroke="white" shape-rendering="crispEdges"/>
</g>
<g opacity="0.7" filter="url(#filter2_d_354_11568)">
<path d="M258.714 71.708C288.787 53.8303 330.257 61.3547 373.097 88.2441C415.912 115.118 459.96 161.261 495.065 220.314C530.171 279.368 549.662 340.11 552.814 390.562C555.969 441.043 542.766 481.067 512.692 498.944C482.619 516.822 441.15 509.299 398.31 482.409C355.495 455.535 311.446 409.392 276.341 350.338C241.236 291.284 221.744 230.543 218.592 180.092C215.438 129.611 228.641 89.5858 258.714 71.708Z" stroke="white" shape-rendering="crispEdges"/>
</g>
<g filter="url(#filter3_d_354_11568)">
<path d="M83.4355 100.411C122.115 77.417 175.224 86.789 229.924 120.794C284.6 154.785 340.732 213.318 385.334 288.346C429.936 363.375 454.538 440.651 458.275 504.922C462.015 569.222 444.874 620.355 406.194 643.349C367.515 666.343 314.406 656.971 259.706 622.965C205.03 588.975 148.898 530.442 104.296 455.414C59.6941 380.385 35.0933 303.109 31.3555 238.837C27.616 174.538 44.756 123.404 83.4355 100.411Z" stroke="white" shape-rendering="crispEdges"/>
</g>
</g>
<defs>
<filter id="filter0_d_354_11568" x="517.933" y="0.000149488" width="228.775" height="284.546" filterUnits="userSpaceOnUse" color-interpolation-filters="sRGB">
<feFlood flood-opacity="0" result="BackgroundImageFix"/>
<feColorMatrix in="SourceAlpha" type="matrix" values="0 0 0 0 0 0 0 0 0 0 0 0 0 0 0 0 0 0 127 0" result="hardAlpha"/>
<feOffset dy="2.0338"/>
<feGaussianBlur stdDeviation="15.1772"/>
<feComposite in2="hardAlpha" operator="out"/>
<feColorMatrix type="matrix" values="0 0 0 0 0.964706 0 0 0 0 0.956863 0 0 0 0 0.952941 0 0 0 1 0"/>
<feBlend mode="normal" in2="BackgroundImageFix" result="effect1_dropShadow_354_11568"/>
<feBlend mode="normal" in="SourceGraphic" in2="effect1_dropShadow_354_11568" result="shape"/>
</filter>
<filter id="filter1_d_354_11568" x="382.3" y="2.72818" width="304.068" height="386.879" filterUnits="userSpaceOnUse" color-interpolation-filters="sRGB">
<feFlood flood-opacity="0" result="BackgroundImageFix"/>
<feColorMatrix in="SourceAlpha" type="matrix" values="0 0 0 0 0 0 0 0 0 0 0 0 0 0 0 0 0 0 127 0" result="hardAlpha"/>
<feOffset dy="2.0338"/>
<feGaussianBlur stdDeviation="15.1772"/>
<feComposite in2="hardAlpha" operator="out"/>
<feColorMatrix type="matrix" values="0 0 0 0 0.964706 0 0 0 0 0.956863 0 0 0 0 0.952941 0 0 0 1 0"/>
<feBlend mode="normal" in2="BackgroundImageFix" result="effect1_dropShadow_354_11568"/>
<feBlend mode="normal" in="SourceGraphic" in2="effect1_dropShadow_354_11568" result="shape"/>
</filter>
<filter id="filter2_d_354_11568" x="187.282" y="33.1686" width="396.842" height="508.383" filterUnits="userSpaceOnUse" color-interpolation-filters="sRGB">
<feFlood flood-opacity="0" result="BackgroundImageFix"/>
<feColorMatrix in="SourceAlpha" type="matrix" values="0 0 0 0 0 0 0 0 0 0 0 0 0 0 0 0 0 0 127 0" result="hardAlpha"/>
<feOffset dy="2.0338"/>
<feGaussianBlur stdDeviation="15.1772"/>
<feComposite in2="hardAlpha" operator="out"/>
<feColorMatrix type="matrix" values="0 0 0 0 0.964706 0 0 0 0 0.956863 0 0 0 0 0.952941 0 0 0 1 0"/>
<feBlend mode="normal" in2="BackgroundImageFix" result="effect1_dropShadow_354_11568"/>
<feBlend mode="normal" in="SourceGraphic" in2="effect1_dropShadow_354_11568" result="shape"/>
</filter>
<filter id="filter3_d_354_11568" x="-0.000934601" y="58.9669" width="489.633" height="629.893" filterUnits="userSpaceOnUse" color-interpolation-filters="sRGB">
<feFlood flood-opacity="0" result="BackgroundImageFix"/>
<feColorMatrix in="SourceAlpha" type="matrix" values="0 0 0 0 0 0 0 0 0 0 0 0 0 0 0 0 0 0 127 0" result="hardAlpha"/>
<feOffset dy="2.0338"/>
<feGaussianBlur stdDeviation="15.1772"/>
<feComposite in2="hardAlpha" operator="out"/>
<feColorMatrix type="matrix" values="0 0 0 0 0.964706 0 0 0 0 0.956863 0 0 0 0 0.952941 0 0 0 1 0"/>
<feBlend mode="normal" in2="BackgroundImageFix" result="effect1_dropShadow_354_11568"/>
<feBlend mode="normal" in="SourceGraphic" in2="effect1_dropShadow_354_11568" result="shape"/>
</filter>
</defs>
</svg>
