<svg width="140" height="140" viewBox="0 0 140 140" fill="none" xmlns="http://www.w3.org/2000/svg">
<path d="M10.6666 50.3292C10.0493 50.8817 9.9968 51.83 10.5493 52.4473C11.1018 53.0646 12.0501 53.1171 12.6674 52.5646L11.667 51.4469L10.6666 50.3292ZM127.333 52.5646C127.951 53.1171 128.899 53.0646 129.451 52.4473C130.004 51.83 129.951 50.8817 129.334 50.3292L128.334 51.4469L127.333 52.5646ZM70.0003 115.167C69.1719 115.167 68.5003 115.838 68.5003 116.667C68.5003 117.495 69.1719 118.167 70.0003 118.167V116.667V115.167ZM70.0587 118.167C70.8871 118.167 71.5587 117.495 71.5587 116.667C71.5587 115.838 70.8871 115.167 70.0587 115.167V116.667V118.167ZM88.6108 96.1945C89.2236 96.752 90.1723 96.7071 90.7297 96.0943C91.2871 95.4814 91.2422 94.5328 90.6294 93.9753L89.6201 95.0849L88.6108 96.1945ZM108.231 74.6128C108.843 75.1702 109.792 75.1254 110.349 74.5125C110.907 73.8997 110.862 72.951 110.249 72.3936L109.24 73.5032L108.231 74.6128ZM49.3712 93.9753C48.7584 94.5328 48.7135 95.4814 49.271 96.0943C49.8284 96.7071 50.7771 96.752 51.3899 96.1945L50.3806 95.0849L49.3712 93.9753ZM29.7515 72.3936C29.1386 72.951 29.0938 73.8997 29.6512 74.5125C30.2086 75.1254 31.1573 75.1702 31.7701 74.6128L30.7608 73.5032L29.7515 72.3936ZM62.044 28.0176C61.2188 28.0907 60.6091 28.8189 60.6823 29.6441C60.7554 30.4693 61.4836 31.079 62.3088 31.0058L62.1764 29.5117L62.044 28.0176ZM99.0404 64.3358C98.3164 63.9331 97.4031 64.1937 97.0005 64.9177C96.5979 65.6417 96.8584 66.555 97.5824 66.9576L98.3114 65.6467L99.0404 64.3358ZM18.561 16.4393C17.9752 15.8536 17.0255 15.8536 16.4397 16.4393C15.8539 17.0251 15.8539 17.9749 16.4397 18.5607L17.5003 17.5L18.561 16.4393ZM121.44 123.561C122.025 124.146 122.975 124.146 123.561 123.561C124.147 122.975 124.147 122.025 123.561 121.439L122.5 122.5L121.44 123.561ZM70.0003 29.1667V30.6667C92.0275 30.6667 112.117 38.9459 127.333 52.5646L128.334 51.4469L129.334 50.3292C113.589 36.2372 92.7939 27.6667 70.0003 27.6667V29.1667ZM70.0003 116.667V118.167H70.0587V116.667V115.167H70.0003V116.667ZM70.0003 87.5V89C77.1677 89 83.6955 91.7235 88.6108 96.1945L89.6201 95.0849L90.6294 93.9753C85.1835 89.0215 77.943 86 70.0003 86V87.5ZM50.3806 95.0849L51.3899 96.1945C56.3052 91.7235 62.833 89 70.0003 89V87.5V86C62.0576 86 54.8172 89.0215 49.3712 93.9753L50.3806 95.0849ZM62.1764 29.5117L62.3088 31.0058C64.8423 30.7813 67.4077 30.6667 70.0003 30.6667V29.1667V27.6667C67.3192 27.6667 64.6655 27.7853 62.044 28.0176L62.1764 29.5117ZM98.3114 65.6467L97.5824 66.9576C101.427 69.0958 104.998 71.672 108.231 74.6128L109.24 73.5032L110.249 72.3936C106.848 69.3 103.091 66.588 99.0404 64.3358L98.3114 65.6467ZM17.5003 17.5L16.4397 18.5607L34.9523 37.0733L36.0129 36.0126L37.0736 34.952L18.561 16.4393L17.5003 17.5ZM11.667 51.4469L12.6674 52.5646C19.6996 46.2705 27.7729 41.1172 36.596 37.3946L36.0129 36.0126L35.4298 34.6306C26.2969 38.4839 17.9425 43.8171 10.6666 50.3292L11.667 51.4469ZM36.0129 36.0126L34.9523 37.0733L58.2502 60.3712L59.3109 59.3106L60.3715 58.2499L37.0736 34.952L36.0129 36.0126ZM59.3109 59.3106L58.2502 60.3712L121.44 123.561L122.5 122.5L123.561 121.439L60.3715 58.2499L59.3109 59.3106ZM30.7608 73.5032L31.7701 74.6128C39.4271 67.6479 48.9909 62.7473 59.584 60.7855L59.3109 59.3106L59.0377 57.8356C47.8796 59.9021 37.8096 65.0637 29.7515 72.3936L30.7608 73.5032Z" fill="white"/>
</svg>
