<svg width="19" height="19" viewBox="0 0 19 19" fill="none" xmlns="http://www.w3.org/2000/svg">
<path d="M2.24909 0C1.00621 0 0.000201081 1.00782 0 2.24789C0 3.48916 1.00601 4.49678 2.24929 4.49678C3.48916 4.49678 4.49658 3.48916 4.49658 2.24789C4.49658 1.00762 3.48896 0 2.24909 0Z" fill="white"/>
<path d="M4.18685 6.35938H0.308594V18.8373H4.18685V6.35938Z" fill="white"/>
<path d="M14.0602 6.04883C12.1736 6.04883 10.9086 7.08319 10.3908 8.06406H10.3389V6.3591H6.61934H6.61914V18.8368H10.494V12.664C10.494 11.0366 10.8038 9.46037 12.8215 9.46037C14.8102 9.46037 14.8367 11.3216 14.8367 12.7684V18.8366H18.7122V11.9926C18.7122 8.63312 17.9873 6.04883 14.0602 6.04883Z" fill="white"/>
</svg>
