<svg width="38" height="38" viewBox="0 0 38 38" fill="none" xmlns="http://www.w3.org/2000/svg">
<path d="M18.5453 22.4094V25.5004M10.818 15.4994C11.5466 15.4549 12.4447 15.4549 13.5998 15.4549H23.4907C24.6458 15.4549 25.544 15.4549 26.2725 15.4994M10.818 15.4994C9.90878 15.5549 9.26373 15.6797 8.71314 15.9602C7.84075 16.4047 7.13148 17.114 6.68697 17.9864C6.18164 18.9782 6.18164 20.2765 6.18164 22.8731V25.0367C6.18164 27.6333 6.18164 28.9316 6.68697 29.9234C7.13148 30.7958 7.84075 31.5051 8.71314 31.9496C9.70491 32.4549 11.0032 32.4549 13.5998 32.4549H23.4907C26.0873 32.4549 27.3856 32.4549 28.3774 31.9496C29.2498 31.5051 29.9591 30.7958 30.4036 29.9234C30.9089 28.9316 30.9089 27.6333 30.9089 25.0367V22.8731C30.9089 20.2765 30.9089 18.9782 30.4036 17.9864C29.9591 17.114 29.2498 16.4047 28.3774 15.9602C27.8268 15.6797 27.1818 15.5549 26.2725 15.4994M10.818 15.4994V12.364C10.818 8.09634 14.2776 4.63672 18.5453 4.63672C22.8129 4.63672 26.2725 8.09634 26.2725 12.364V15.4994" stroke="white" stroke-linecap="round" stroke-linejoin="round"/>
</svg>
