<svg width="86" height="30" viewBox="0 0 86 30" fill="none" xmlns="http://www.w3.org/2000/svg">
<path d="M78.178 29.9975C77.1427 29.9975 76.185 29.868 75.305 29.6092C74.4422 29.3504 73.6916 28.9794 73.0532 28.4963C72.4148 28.0131 71.9144 27.4437 71.552 26.788L73.1826 25.2868C73.4759 25.8045 73.8642 26.2531 74.3473 26.6327C74.8305 27.0296 75.3913 27.3315 76.0297 27.5386C76.6682 27.7629 77.3497 27.8751 78.0745 27.8751C79.0235 27.8751 79.8431 27.7025 80.5333 27.3574C81.2408 27.0296 81.7757 26.5378 82.138 25.8821C82.5177 25.2437 82.7075 24.4931 82.7075 23.6303V22.4656H82.6816C82.2502 23.2421 81.629 23.8546 80.818 24.3033C80.0243 24.7519 79.1702 24.9762 78.2556 24.9762C77.2031 24.9762 76.2799 24.7346 75.4862 24.2515C74.6924 23.7683 74.0799 23.0954 73.6485 22.2326C73.2171 21.3699 73.0014 20.395 73.0014 19.3079V10.9219H75.3826V19.1526C75.3826 19.8773 75.5207 20.5244 75.7968 21.0938C76.0729 21.646 76.4611 22.086 76.9615 22.4138C77.4792 22.7244 78.0831 22.8797 78.7733 22.8797C79.4807 22.8797 80.1278 22.7072 80.7145 22.362C81.3184 22.0169 81.7929 21.5424 82.138 20.9385C82.5004 20.3346 82.6816 19.653 82.6816 18.8938V10.9219H85.0887L85.1146 23.6562C85.1146 24.9676 84.8298 26.0978 84.2604 27.0468C83.691 27.9959 82.8886 28.7206 81.8533 29.221C80.818 29.7386 79.5929 29.9975 78.178 29.9975Z" fill="#FFBE5D"/>
<path d="M64.109 24.5641C62.7113 24.5641 61.4775 24.2708 60.4077 23.6841C59.3379 23.0974 58.5097 22.2692 57.923 21.1994C57.3363 20.1295 57.043 18.8958 57.043 17.4981C57.043 16.0832 57.3363 14.8408 57.923 13.771C58.5097 12.7012 59.3379 11.8729 60.4077 11.2863C61.4775 10.6996 62.7113 10.4062 64.109 10.4062C65.5239 10.4062 66.7576 10.6996 67.8102 11.2863C68.88 11.8729 69.7083 12.7012 70.2949 13.771C70.8816 14.8408 71.1749 16.0832 71.1749 17.4981C71.1749 18.8958 70.8816 20.1295 70.2949 21.1994C69.7083 22.2692 68.88 23.0974 67.8102 23.6841C66.7576 24.2708 65.5239 24.5641 64.109 24.5641ZM64.109 22.4417C65.0407 22.4417 65.8517 22.2433 66.5419 21.8464C67.2494 21.4323 67.7929 20.8543 68.1725 20.1123C68.5694 19.3703 68.7679 18.4989 68.7679 17.4981C68.7679 16.4973 68.5694 15.6259 68.1725 14.884C67.7929 14.142 67.2494 13.5726 66.5419 13.1757C65.8517 12.7616 65.0407 12.5545 64.109 12.5545C63.1772 12.5545 62.3576 12.7616 61.6501 13.1757C60.9426 13.5726 60.3905 14.142 59.9936 14.884C59.614 15.6259 59.4242 16.4973 59.4242 17.4981C59.4242 18.4989 59.614 19.3703 59.9936 20.1123C60.3905 20.8543 60.9426 21.4323 61.6501 21.8464C62.3576 22.2433 63.1772 22.4417 64.109 22.4417Z" fill="#FFBE5D"/>
<path d="M34.8123 24.044V10.9215H36.8311L37.1417 12.9662H37.1676C37.5299 12.1725 38.1166 11.5513 38.9276 11.1026C39.7386 10.654 40.6704 10.4297 41.7229 10.4297C42.741 10.4297 43.5951 10.6626 44.2853 11.1285C44.9928 11.5944 45.5105 12.2674 45.8383 13.1474H45.8642C46.4164 12.2501 47.1152 11.5772 47.9607 11.1285C48.8062 10.6626 49.738 10.4297 50.756 10.4297C51.6878 10.4297 52.4815 10.6281 53.1372 11.025C53.8102 11.4046 54.3192 11.9654 54.6643 12.7074C55.0267 13.4321 55.2079 14.2948 55.2079 15.2956V24.044H52.7749V15.6062C52.7749 14.6572 52.5161 13.9152 51.9984 13.3803C51.498 12.8454 50.7905 12.578 49.876 12.578C49.1168 12.578 48.4611 12.7591 47.9089 13.1215C47.3568 13.4666 46.934 13.9584 46.6407 14.5968C46.3473 15.2352 46.2007 15.96 46.2007 16.771V24.044H43.7936V15.6062C43.7936 14.6399 43.5347 13.898 43.0171 13.3803C42.5167 12.8454 41.8006 12.578 40.8688 12.578C39.73 12.578 38.8327 12.9662 38.177 13.7427C37.5213 14.5019 37.1935 15.5113 37.1935 16.771V24.044H34.8123Z" fill="#FFBE5D"/>
<path d="M26.6825 24.5641C25.2848 24.5641 24.0252 24.2535 22.9036 23.6323C21.782 23.0111 20.902 22.157 20.2636 21.0699C19.6251 19.9656 19.3059 18.7319 19.3059 17.3687C19.3059 16.0228 19.5906 14.8236 20.16 13.771C20.7467 12.7184 21.5577 11.8988 22.593 11.3121C23.6283 10.7082 24.7931 10.4062 26.0872 10.4062C27.3813 10.4062 28.5115 10.7082 29.4778 11.3121C30.4614 11.8988 31.2206 12.7098 31.7555 13.7451C32.3077 14.7804 32.5838 15.971 32.5838 17.3169C32.5838 17.455 32.5838 17.6103 32.5838 17.7828C32.5838 17.9381 32.5665 18.0934 32.532 18.2487H21.7907C21.8769 19.0942 22.1444 19.8448 22.593 20.5005C23.0417 21.139 23.6197 21.6394 24.3272 22.0017C25.0519 22.3641 25.8629 22.5453 26.7601 22.5453C27.7092 22.5453 28.5806 22.3296 29.3743 21.8982C30.168 21.4496 30.7547 20.8801 31.1343 20.1899L32.972 21.1217C32.6787 21.7947 32.2214 22.39 31.6002 22.9076C30.979 23.4253 30.2457 23.8308 29.4002 24.1241C28.5547 24.4174 27.6488 24.5641 26.6825 24.5641ZM30.0731 16.3852C30.0041 15.5569 29.7884 14.8495 29.4261 14.2628C29.081 13.6761 28.6151 13.2275 28.0284 12.9169C27.459 12.6063 26.8119 12.451 26.0872 12.451C25.3452 12.451 24.6636 12.6149 24.0425 12.9428C23.4385 13.2706 22.9381 13.7365 22.5413 14.3404C22.1616 14.9271 21.9201 15.6087 21.8165 16.3852H30.0731Z" fill="#FFBE5D"/>
<g filter="url(#filter0_d_397_3076)">
<ellipse cx="11.0576" cy="3.09455" rx="2.01703" ry="2.36073" transform="rotate(-35.7935 11.0576 3.09455)" fill="#FFBE5D"/>
<path d="M9.93409 1.53718C10.5897 1.06448 11.6764 1.25728 12.3363 2.17207C12.9961 3.08713 12.8361 4.17983 12.1805 4.65259C11.5248 5.12503 10.4382 4.93124 9.7785 4.01634C9.11908 3.1015 9.2788 2.01002 9.93409 1.53718Z" stroke="#FFBE5D" stroke-width="0.880747"/>
</g>
<g filter="url(#filter1_d_397_3076)">
<ellipse cx="4.83843" cy="4.24201" rx="2.01703" ry="2.36073" transform="rotate(32.9329 4.83843 4.24201)" fill="#FFBE5D"/>
<path d="M5.88206 2.63006C6.56041 3.06945 6.77505 4.15212 6.162 5.09889C5.54868 6.04574 4.4724 6.29313 3.79397 5.85369C3.11583 5.41409 2.90218 4.33125 3.51539 3.38457C4.12863 2.43815 5.20369 2.19098 5.88206 2.63006Z" stroke="#FFBE5D" stroke-width="0.880747"/>
</g>
<path d="M1.10166 23.9609C1.10166 23.9609 0.823391 8.36183 3.82611 8.36174C6.82883 8.36166 15.098 19.8378 9.20633 19.8378C3.31465 19.8377 11.7098 2.31303 14.0614 8.68501C16.4131 15.057 16.3911 23.9592 16.3911 23.9592" stroke="#FFBE5D" stroke-width="2.18548"/>
<defs>
<filter id="filter0_d_397_3076" x="8.84439" y="0.84375" width="4.42646" height="4.64472" filterUnits="userSpaceOnUse" color-interpolation-filters="sRGB">
<feFlood flood-opacity="0" result="BackgroundImageFix"/>
<feColorMatrix in="SourceAlpha" type="matrix" values="0 0 0 0 0 0 0 0 0 0 0 0 0 0 0 0 0 0 127 0" result="hardAlpha"/>
<feOffset dy="0.0723597"/>
<feGaussianBlur stdDeviation="0.0361798"/>
<feComposite in2="hardAlpha" operator="out"/>
<feColorMatrix type="matrix" values="0 0 0 0 0 0 0 0 0 0 0 0 0 0 0 0 0 0 0.25 0"/>
<feBlend mode="normal" in2="BackgroundImageFix" result="effect1_dropShadow_397_3076"/>
<feBlend mode="normal" in="SourceGraphic" in2="effect1_dropShadow_397_3076" result="shape"/>
</filter>
<filter id="filter1_d_397_3076" x="2.64151" y="1.97656" width="4.39374" height="4.67597" filterUnits="userSpaceOnUse" color-interpolation-filters="sRGB">
<feFlood flood-opacity="0" result="BackgroundImageFix"/>
<feColorMatrix in="SourceAlpha" type="matrix" values="0 0 0 0 0 0 0 0 0 0 0 0 0 0 0 0 0 0 127 0" result="hardAlpha"/>
<feOffset dy="0.0723597"/>
<feGaussianBlur stdDeviation="0.0361798"/>
<feComposite in2="hardAlpha" operator="out"/>
<feColorMatrix type="matrix" values="0 0 0 0 0 0 0 0 0 0 0 0 0 0 0 0 0 0 0.25 0"/>
<feBlend mode="normal" in2="BackgroundImageFix" result="effect1_dropShadow_397_3076"/>
<feBlend mode="normal" in="SourceGraphic" in2="effect1_dropShadow_397_3076" result="shape"/>
</filter>
</defs>
</svg>
