<svg width="86" height="30" viewBox="0 0 86 30" fill="none" xmlns="http://www.w3.org/2000/svg">
<path d="M78.178 29.9962C77.1427 29.9962 76.185 29.8668 75.305 29.608C74.4422 29.3491 73.6916 28.9782 73.0532 28.495C72.4148 28.0119 71.9144 27.4425 71.552 26.7868L73.1826 25.2856C73.4759 25.8032 73.8642 26.2518 74.3473 26.6315C74.8305 27.0283 75.3913 27.3303 76.0297 27.5374C76.6681 27.7617 77.3497 27.8738 78.0744 27.8738C79.0235 27.8738 79.8431 27.7013 80.5333 27.3562C81.2408 27.0283 81.7757 26.5366 82.138 25.8809C82.5177 25.2424 82.7075 24.4918 82.7075 23.6291V22.4643H82.6816C82.2502 23.2408 81.629 23.8534 80.818 24.302C80.0243 24.7506 79.1701 24.975 78.2556 24.975C77.2031 24.975 76.2799 24.7334 75.4862 24.2502C74.6924 23.7671 74.0799 23.0942 73.6485 22.2314C73.2171 21.3686 73.0014 20.3937 73.0014 19.3066V10.9206H75.3826V19.1513C75.3826 19.8761 75.5207 20.5231 75.7968 21.0926C76.0728 21.6447 76.4611 22.0847 76.9615 22.4126C77.4791 22.7232 78.0831 22.8785 78.7733 22.8785C79.4807 22.8785 80.1278 22.7059 80.7145 22.3608C81.3184 22.0157 81.7929 21.5412 82.138 20.9373C82.5004 20.3333 82.6816 19.6517 82.6816 18.8925V10.9206H85.0887L85.1145 23.6549C85.1145 24.9663 84.8298 26.0965 84.2604 27.0456C83.691 27.9946 82.8886 28.7193 81.8533 29.2197C80.818 29.7374 79.5929 29.9962 78.178 29.9962Z" fill="#FFBE5D"/>
<path d="M64.1091 24.5608C62.7114 24.5608 61.4777 24.2675 60.4079 23.6808C59.338 23.0941 58.5098 22.2659 57.9231 21.1961C57.3364 20.1263 57.0431 18.8925 57.0431 17.4948C57.0431 16.0799 57.3364 14.8375 57.9231 13.7677C58.5098 12.6979 59.338 11.8697 60.4079 11.283C61.4777 10.6963 62.7114 10.403 64.1091 10.403C65.524 10.403 66.7578 10.6963 67.8103 11.283C68.8801 11.8697 69.7084 12.6979 70.2951 13.7677C70.8817 14.8375 71.1751 16.0799 71.1751 17.4948C71.1751 18.8925 70.8817 20.1263 70.2951 21.1961C69.7084 22.2659 68.8801 23.0941 67.8103 23.6808C66.7578 24.2675 65.524 24.5608 64.1091 24.5608ZM64.1091 22.4384C65.0409 22.4384 65.8519 22.24 66.5421 21.8431C67.2495 21.429 67.7931 20.851 68.1727 20.109C68.5696 19.367 68.768 18.4956 68.768 17.4948C68.768 16.494 68.5696 15.6227 68.1727 14.8807C67.7931 14.1387 67.2495 13.5693 66.5421 13.1724C65.8519 12.7583 65.0409 12.5512 64.1091 12.5512C63.1773 12.5512 62.3577 12.7583 61.6502 13.1724C60.9428 13.5693 60.3906 14.1387 59.9937 14.8807C59.6141 15.6227 59.4243 16.494 59.4243 17.4948C59.4243 18.4956 59.6141 19.367 59.9937 20.109C60.3906 20.851 60.9428 21.429 61.6502 21.8431C62.3577 22.24 63.1773 22.4384 64.1091 22.4384Z" fill="#FFBE5D"/>
<path d="M34.8123 24.0432V10.9206H36.8311L37.1417 12.9654H37.1676C37.5299 12.1716 38.1166 11.5504 38.9276 11.1018C39.7386 10.6532 40.6704 10.4289 41.7229 10.4289C42.741 10.4289 43.5951 10.6618 44.2853 11.1277C44.9928 11.5936 45.5105 12.2665 45.8383 13.1466H45.8642C46.4164 12.2493 47.1152 11.5763 47.9607 11.1277C48.8062 10.6618 49.738 10.4289 50.756 10.4289C51.6878 10.4289 52.4815 10.6273 53.1372 11.0242C53.8102 11.4038 54.3192 11.9646 54.6643 12.7065C55.0267 13.4313 55.2079 14.294 55.2079 15.2948V24.0432H52.7749V15.6054C52.7749 14.6564 52.5161 13.9144 51.9984 13.3795C51.498 12.8446 50.7905 12.5771 49.876 12.5771C49.1168 12.5771 48.4611 12.7583 47.9089 13.1207C47.3568 13.4658 46.934 13.9575 46.6407 14.596C46.3473 15.2344 46.2007 15.9591 46.2007 16.7701V24.0432H43.7936V15.6054C43.7936 14.6391 43.5347 13.8972 43.0171 13.3795C42.5167 12.8446 41.8006 12.5771 40.8688 12.5771C39.73 12.5771 38.8327 12.9654 38.177 13.7419C37.5213 14.5011 37.1935 15.5105 37.1935 16.7701V24.0432H34.8123Z" fill="#FFBE5D"/>
<path d="M26.6824 24.5608C25.2848 24.5608 24.0251 24.2502 22.9036 23.6291C21.782 23.0079 20.902 22.1537 20.2635 21.0667C19.6251 19.9623 19.3059 18.7286 19.3059 17.3654C19.3059 16.0195 19.5906 14.8203 20.16 13.7677C20.7467 12.7152 21.5577 11.8955 22.593 11.3089C23.6283 10.7049 24.793 10.403 26.0871 10.403C27.3813 10.403 28.5115 10.7049 29.4778 11.3089C30.4613 11.8955 31.2205 12.7065 31.7555 13.7418C32.3076 14.7772 32.5837 15.9678 32.5837 17.3137C32.5837 17.4517 32.5837 17.607 32.5837 17.7796C32.5837 17.9348 32.5665 18.0901 32.5319 18.2454H21.7906C21.8769 19.0909 22.1443 19.8415 22.593 20.4972C23.0416 21.1357 23.6196 21.6361 24.3271 21.9984C25.0518 22.3608 25.8628 22.542 26.7601 22.542C27.7091 22.542 28.5805 22.3263 29.3742 21.8949C30.168 21.4463 30.7547 20.8769 31.1343 20.1866L32.9719 21.1184C32.6786 21.7914 32.2213 22.3867 31.6002 22.9043C30.979 23.422 30.2456 23.8275 29.4001 24.1208C28.5546 24.4142 27.6487 24.5608 26.6824 24.5608ZM30.0731 16.3819C30.0041 15.5536 29.7884 14.8462 29.426 14.2595C29.0809 13.6728 28.615 13.2242 28.0283 12.9136C27.4589 12.603 26.8119 12.4477 26.0871 12.4477C25.3452 12.4477 24.6636 12.6116 24.0424 12.9395C23.4385 13.2673 22.9381 13.7332 22.5412 14.3371C22.1616 14.9238 21.92 15.6054 21.8165 16.3819H30.0731Z" fill="#FFBE5D"/>
<path d="M12.6937 1.91346C13.4563 2.97101 13.3419 4.35649 12.4384 5.00801C11.5348 5.65953 10.1841 5.33038 9.42158 4.27283C8.65903 3.21528 8.77336 1.82981 9.67694 1.17828C10.5805 0.526759 11.9312 0.855908 12.6937 1.91346Z" fill="#FFBE5D"/>
<path d="M6.53154 5.33414C5.82272 6.42843 4.49017 6.82457 3.55521 6.21896C2.62024 5.61334 2.43691 4.23529 3.14573 3.141C3.85455 2.04672 5.1871 1.65057 6.12206 2.25619C7.05703 2.86181 7.24036 4.23986 6.53154 5.33414Z" fill="#FFBE5D"/>
<path d="M0.00264557 23.2966C0.00087864 22.8645 0.00193644 22.2482 0.0124576 21.5095C0.0334744 20.034 0.0934155 18.0587 0.248772 16.0773C0.403008 14.1102 0.655108 12.0782 1.07856 10.515C1.28813 9.74135 1.56053 9.00258 1.93344 8.43401C2.29825 7.87784 2.91126 7.27077 3.82644 7.27074C4.51016 7.27083 5.18071 7.5801 5.73998 7.9297C6.32839 8.29752 6.9365 8.80098 7.52435 9.37311C7.75805 9.60057 7.98983 9.84471 8.22221 10.0982C8.97822 8.75239 9.88819 7.54968 10.8392 6.85716C11.4645 6.40193 12.3231 6.01567 13.2452 6.28751C14.1749 6.56163 14.7433 7.37809 15.0865 8.30795C16.311 11.6258 16.9041 15.5545 17.1957 18.6091C17.3423 20.1453 17.4147 21.4792 17.45 22.4298C17.4677 22.9052 17.4757 23.286 17.4798 23.5489C17.4818 23.6802 17.4829 23.7827 17.4834 23.8526L17.4836 23.963L15.2981 23.9579L15.2979 23.8661C15.2975 23.8027 15.2972 23.7071 15.2953 23.5829C15.2914 23.3342 15.2827 22.9691 15.2656 22.5107C15.2316 21.5931 15.1622 20.3026 15.0203 18.8169C14.735 15.8274 14.1635 12.1185 13.0364 9.06433C12.8355 8.52014 12.6593 8.40217 12.6267 8.38455C12.6627 8.39517 12.5257 8.33234 12.1253 8.62391C11.3892 9.15995 10.4922 10.3842 9.72618 11.9367C10.1085 12.4608 10.4692 13.0013 10.7912 13.5428C11.6648 15.012 12.3745 16.6636 12.3663 18.0521C12.362 18.7816 12.156 19.558 11.5408 20.1399C10.9346 20.713 10.1053 20.932 9.20654 20.932C8.15987 20.932 7.29316 20.5205 6.73421 19.7293C6.22036 19.0019 6.0586 18.0818 6.05591 17.2034C6.05133 15.6925 6.51781 13.8954 7.19265 12.2391C6.8006 11.7675 6.39853 11.3264 6.00038 10.9389C5.48283 10.4352 4.99738 10.0425 4.58187 9.78279C4.23088 9.56338 4.00426 9.48851 3.89173 9.46592C3.86308 9.49467 3.8178 9.54449 3.76025 9.63222C3.57364 9.91674 3.37479 10.3978 3.1882 11.0866C2.81943 12.4481 2.57839 14.3161 2.42688 16.2484C2.27651 18.1664 2.21872 20.0908 2.19808 21.5399C2.18777 22.2632 2.18646 22.8661 2.18818 23.287C2.18904 23.4973 2.19088 23.6625 2.19216 23.7743C2.1928 23.8302 2.19299 23.8729 2.19341 23.9013C2.19362 23.9154 2.19434 23.9266 2.19446 23.9335L2.19447 23.9423C2.19447 23.9423 2.19422 23.9427 1.10174 23.9622C0.00917757 23.9817 0.00900692 23.9812 0.00900692 23.9812L0.0089795 23.9685C0.0088482 23.9604 0.00815134 23.9485 0.00792701 23.9333C0.00747546 23.9027 0.00732642 23.8577 0.00666149 23.7995C0.00532866 23.6829 0.0035294 23.5126 0.00264557 23.2966ZM8.24144 17.1968C8.24348 17.8616 8.37407 18.2616 8.51958 18.4677C8.62005 18.6099 8.78054 18.7464 9.20671 18.7465C9.78026 18.7464 9.98164 18.6067 10.0393 18.5523C10.0877 18.5065 10.1787 18.3856 10.1808 18.0393C10.1852 17.2762 9.74502 16.0587 8.91272 14.6592C8.85803 14.5672 8.79925 14.477 8.74221 14.3851C8.42213 15.4167 8.23903 16.3988 8.24144 17.1968Z" fill="#FFBE5D"/>
</svg>
