<svg width="301" height="336" viewBox="0 0 301 336" fill="none" xmlns="http://www.w3.org/2000/svg">
<rect x="0.5" y="0.5" width="299.397" height="335" rx="27.4179" stroke="white"/>
<path d="M150.198 28.6855C174.758 28.6856 184.527 37.8446 187.547 41.6787C188.329 42.6721 188.639 43.9492 188.639 45.291V93.3574C188.639 98.106 184.789 101.956 180.04 101.956H120.355C115.607 101.956 111.758 98.1059 111.758 93.3574V45.291C111.758 43.9492 112.067 42.6721 112.85 41.6787C115.87 37.8446 125.638 28.6855 150.198 28.6855Z" stroke="white"/>
<line x1="150.957" y1="31.7954" x2="150.957" y2="35.4058" stroke="white"/>
<line x1="150.957" y1="48.8159" x2="150.957" y2="102.456" stroke="white"/>
<line x1="164.866" y1="33.4724" x2="163.931" y2="36.9598" stroke="white"/>
<line y1="-0.5" x2="3.61037" y2="-0.5" transform="matrix(0.258819 0.965926 0.965926 -0.258819 136.531 33.343)" stroke="white"/>
<line y1="-0.5" x2="3.61037" y2="-0.5" transform="matrix(0.707107 0.707107 0.707107 -0.707107 119.439 38.9189)" stroke="white"/>
<line x1="181.756" y1="39.3699" x2="179.203" y2="41.9228" stroke="white"/>
</svg>
