<svg width="332" height="393" viewBox="0 0 332 393" fill="none" xmlns="http://www.w3.org/2000/svg">
<path d="M173.791 252.88C173.791 263.057 134.999 271.307 87.1457 271.307C39.2926 271.307 0.5 263.057 0.5 252.88" stroke="white"/>
<path d="M0.5 45.4792V253.272M173.791 45.4792V106.472M173.791 253.272V192.502" stroke="white"/>
<path d="M87.1455 26.376C111.048 26.376 132.673 28.4363 148.31 31.7617C156.132 33.4253 162.429 35.4004 166.758 37.5771C168.923 38.6659 170.571 39.7924 171.671 40.9355C172.769 42.0767 173.291 43.2013 173.291 44.3027C173.291 45.4042 172.769 46.5287 171.671 47.6699C170.571 48.8131 168.923 49.9396 166.758 51.0283C162.429 53.205 156.132 55.1802 148.31 56.8438C132.673 60.1691 111.048 62.2295 87.1455 62.2295C63.2434 62.2295 41.6188 60.1691 25.9824 56.8438C18.1601 55.1802 11.8623 53.205 7.5332 51.0283C5.36824 49.9397 3.72103 48.813 2.62109 47.6699C1.52302 46.5287 1 45.4042 1 44.3027C1.00005 43.2013 1.52307 42.0767 2.62109 40.9355C3.72105 39.7925 5.36828 38.6657 7.5332 37.5771C11.8623 35.4004 18.1601 33.4253 25.9824 31.7617C41.6188 28.4364 63.2434 26.376 87.1455 26.376Z" stroke="white"/>
<line x1="38.0293" y1="268.171" x2="38.0293" y2="58.8086" stroke="white"/>
<path d="M135.762 268.17C135.762 268.17 135.866 295.225 135.863 323.453C135.86 353.734 155.174 392.455 207.611 392.456C260.047 392.456 279.358 353.734 279.358 323.453C279.358 254.842 279.648 116.05 279.648 116.05" stroke="white"/>
<path d="M280.433 0.5C308.305 0.5 330.901 23.0952 330.901 50.9678C330.901 64.9466 326.318 81.316 317.698 94.1787C309.082 107.037 296.477 116.334 280.433 116.334C264.389 116.334 251.784 107.037 243.168 94.1787C234.549 81.316 229.965 64.9467 229.965 50.9678C229.965 23.0953 252.56 0.500151 280.433 0.5Z" stroke="white"/>
<circle cx="173.4" cy="149.376" r="43.0189" stroke="white"/>
<circle cx="173.4" cy="149.376" r="4.59681" stroke="white"/>
<line x1="173.291" y1="145.063" x2="173.291" y2="119.971" stroke="white"/>
</svg>
