<svg width="247" height="393" viewBox="0 0 247 393" fill="none" xmlns="http://www.w3.org/2000/svg">
<rect x="10.5719" y="77.9044" width="211.965" height="237.315" rx="31.8619" stroke="white" stroke-width="1.30399"/>
<rect x="0.651994" y="67.985" width="231.253" height="257.154" rx="37.9238" stroke="white" stroke-width="1.30399"/>
<path d="M38.5742 325.791L53.0256 383.837C54.2484 388.749 58.6593 392.196 63.7208 392.196H169.384C174.445 392.196 178.856 388.749 180.079 383.837L194.531 325.791" stroke="white" stroke-width="1.30399"/>
<line x1="43.5352" y1="343.6" x2="189.573" y2="343.6" stroke="white" stroke-width="1.30399"/>
<line x1="49.5977" y1="369.225" x2="183.511" y2="369.225" stroke="white" stroke-width="1.30399"/>
<path d="M38.0254 67.0574L52.4768 9.0109C53.6996 4.09933 58.1105 0.651947 63.172 0.651947H168.835C173.897 0.651947 178.307 4.09934 179.53 9.0109L193.982 67.0574" stroke="white" stroke-width="1.30399"/>
<line y1="-0.651994" x2="146.038" y2="-0.651994" transform="matrix(1 0 0 -1 42.9844 48.5962)" stroke="white" stroke-width="1.30399"/>
<line y1="-0.651994" x2="133.913" y2="-0.651994" transform="matrix(1 0 0 -1 49.0449 22.9707)" stroke="white" stroke-width="1.30399"/>
<path d="M241.374 160.567C244.057 160.567 246.233 162.742 246.233 165.425V189.122C246.233 191.805 244.057 193.981 241.374 193.981H232.658V160.567H241.374Z" stroke="white" stroke-width="1.30399"/>
</svg>
