<svg width="221" height="221" viewBox="0 0 221 221" fill="none" xmlns="http://www.w3.org/2000/svg">
<g opacity="0.3" filter="url(#filter0_d_532_884)">
<path d="M113.465 99.0359C120.574 102.426 123.607 110.971 120.234 118.124C116.861 125.277 108.362 128.324 101.253 124.934C94.1443 121.544 91.1117 112.998 94.4845 105.845C97.8575 98.6925 106.356 95.646 113.465 99.0359Z" stroke="white" shape-rendering="crispEdges"/>
</g>
<g opacity="0.3" filter="url(#filter1_d_532_884)">
<circle cx="110.354" cy="108.321" r="79.5" stroke="white" shape-rendering="crispEdges"/>
</g>
<g filter="url(#filter2_d_532_884)">
<path d="M126.851 69.6049C127.604 69.964 128.354 70.8271 129.058 72.2113C129.756 73.581 130.373 75.3907 130.899 77.5356C131.951 81.8232 132.623 87.3766 132.875 93.2504C133.128 99.1215 132.962 105.294 132.345 110.817C131.728 116.349 130.664 121.187 129.142 124.414C123.028 137.381 107.785 142.97 95.1065 136.925C82.4284 130.879 77.0865 115.473 83.2009 102.506C84.7226 99.2795 87.7732 95.3891 91.6425 91.407C95.5044 87.4325 100.153 83.3968 104.833 79.8781C109.516 76.358 114.216 73.3661 118.183 71.4717C120.167 70.524 121.952 69.8598 123.448 69.5358C124.959 69.2085 126.098 69.246 126.851 69.6049Z" stroke="white" shape-rendering="crispEdges"/>
</g>
<defs>
<filter id="filter0_d_532_884" x="62.253" y="68.8293" width="90.2128" height="90.3788" filterUnits="userSpaceOnUse" color-interpolation-filters="sRGB">
<feFlood flood-opacity="0" result="BackgroundImageFix"/>
<feColorMatrix in="SourceAlpha" type="matrix" values="0 0 0 0 0 0 0 0 0 0 0 0 0 0 0 0 0 0 127 0" result="hardAlpha"/>
<feOffset dy="2.0338"/>
<feGaussianBlur stdDeviation="15.1772"/>
<feComposite in2="hardAlpha" operator="out"/>
<feColorMatrix type="matrix" values="0 0 0 0 0.964706 0 0 0 0 0.956863 0 0 0 0 0.952941 0 0 0 1 0"/>
<feBlend mode="normal" in2="BackgroundImageFix" result="effect1_dropShadow_532_884"/>
<feBlend mode="normal" in="SourceGraphic" in2="effect1_dropShadow_532_884" result="shape"/>
</filter>
<filter id="filter1_d_532_884" x="4.19617e-05" y="0.000149488" width="220.709" height="220.709" filterUnits="userSpaceOnUse" color-interpolation-filters="sRGB">
<feFlood flood-opacity="0" result="BackgroundImageFix"/>
<feColorMatrix in="SourceAlpha" type="matrix" values="0 0 0 0 0 0 0 0 0 0 0 0 0 0 0 0 0 0 127 0" result="hardAlpha"/>
<feOffset dy="2.0338"/>
<feGaussianBlur stdDeviation="15.1772"/>
<feComposite in2="hardAlpha" operator="out"/>
<feColorMatrix type="matrix" values="0 0 0 0 0.964706 0 0 0 0 0.956863 0 0 0 0 0.952941 0 0 0 1 0"/>
<feBlend mode="normal" in2="BackgroundImageFix" result="effect1_dropShadow_532_884"/>
<feBlend mode="normal" in="SourceGraphic" in2="effect1_dropShadow_532_884" result="shape"/>
</filter>
<filter id="filter2_d_532_884" x="49.8155" y="40.4899" width="114.027" height="131.761" filterUnits="userSpaceOnUse" color-interpolation-filters="sRGB">
<feFlood flood-opacity="0" result="BackgroundImageFix"/>
<feColorMatrix in="SourceAlpha" type="matrix" values="0 0 0 0 0 0 0 0 0 0 0 0 0 0 0 0 0 0 127 0" result="hardAlpha"/>
<feOffset dy="2.0338"/>
<feGaussianBlur stdDeviation="15.1772"/>
<feComposite in2="hardAlpha" operator="out"/>
<feColorMatrix type="matrix" values="0 0 0 0 0.964706 0 0 0 0 0.956863 0 0 0 0 0.952941 0 0 0 1 0"/>
<feBlend mode="normal" in2="BackgroundImageFix" result="effect1_dropShadow_532_884"/>
<feBlend mode="normal" in="SourceGraphic" in2="effect1_dropShadow_532_884" result="shape"/>
</filter>
</defs>
</svg>
