<svg width="160" height="160" viewBox="0 0 160 160" fill="none" xmlns="http://www.w3.org/2000/svg">
<path opacity="0.3" d="M83.1109 70.7151C90.22 74.1052 93.2525 82.6506 89.8796 89.8036C86.5066 96.9564 78.0078 100.003 70.8988 96.613C63.7898 93.223 60.7572 84.6775 64.1301 77.5246C67.503 70.3717 76.0018 67.3252 83.1109 70.7151Z" stroke="white"/>
<circle opacity="0.3" cx="80" cy="80" r="79.5" stroke="white"/>
<path d="M96.4964 41.2841C97.2494 41.6432 97.9995 42.5063 98.704 43.8905C99.4011 45.2602 100.018 47.0699 100.544 49.2148C101.596 53.5024 102.268 59.0558 102.521 64.9296C102.774 70.8007 102.607 76.9735 101.991 82.4957C101.373 88.0287 100.309 92.8663 98.7877 96.0933C92.6733 109.06 77.4303 114.65 64.752 108.604C52.0739 102.558 46.732 87.1523 52.8464 74.1857C54.3681 70.9587 57.4187 67.0683 61.288 63.0862C65.1499 59.1117 69.7982 55.076 74.4787 51.5573C79.1612 48.0372 83.8615 45.0453 87.8284 43.1509C89.813 42.2032 91.5976 41.539 93.0934 41.215C94.6048 40.8877 95.7434 40.9252 96.4964 41.2841Z" stroke="white"/>
</svg>
