<svg width="176" height="176" viewBox="0 0 176 176" fill="none" xmlns="http://www.w3.org/2000/svg">
<circle opacity="0.26" cx="149" cy="33" r="26.5" stroke="white"/>
<path opacity="0.3" d="M125.5 16.5C147.058 16.5 164.5 33.3074 164.5 54C164.5 74.6926 147.058 91.5 125.5 91.5C103.942 91.5 86.5 74.6926 86.5 54C86.5 33.3074 103.942 16.5 125.5 16.5Z" stroke="white"/>
<path opacity="0.7" d="M97 24.5C125.986 24.5 149.5 48.4439 149.5 78C149.5 107.556 125.986 131.5 97 131.5C68.0138 131.5 44.5 107.556 44.5 78C44.5 48.4439 68.0138 24.5 97 24.5Z" stroke="white"/>
<path d="M67.5 32.5C104.496 32.5 134.5 62.9377 134.5 100.5C134.5 138.062 104.496 168.5 67.5 168.5C30.5038 168.5 0.5 138.062 0.5 100.5C0.5 62.9377 30.5038 32.5 67.5 32.5Z" stroke="white"/>
</svg>
