<svg width="176" height="176" viewBox="0 0 176 176" fill="none" xmlns="http://www.w3.org/2000/svg">
<path d="M75.458 10.5C116.891 10.5001 150.5 44.962 150.5 87.5C150.5 130.038 116.891 164.5 75.458 164.5C65.0934 164.5 57.7306 162.345 52.4932 158.507C47.2601 154.672 44.0856 149.11 42.1855 142.169C40.2831 135.22 39.6681 126.922 39.5322 117.659C39.3962 108.384 39.7393 98.2321 39.7393 87.5C39.7393 76.7679 39.3962 66.6164 39.5322 57.3408C39.6681 48.0785 40.2831 39.7802 42.1855 32.8311C44.0856 25.8904 47.2601 20.3284 52.4932 16.4932C57.7306 12.6548 65.0934 10.5 75.458 10.5Z" stroke="white"/>
<path d="M146.627 36.2287C154.524 50.0444 154.332 66.8781 147.574 82.9574C140.815 99.037 127.497 114.332 109.206 125.005C90.9157 135.678 71.1483 139.69 53.9859 137.569C36.8238 135.448 22.297 127.203 14.3996 113.387C10.4501 106.478 9.48963 100.51 10.7702 95.1132C12.0544 89.7013 15.6107 84.7811 20.8588 80.015C26.1062 75.2496 33.0046 70.6736 40.9077 65.9404C48.8193 61.2021 57.6762 56.342 66.8853 50.9682C76.0945 45.5944 84.6871 40.2722 92.703 35.7162C100.71 31.1652 108.081 27.4145 114.789 25.2037C121.498 22.9927 127.493 22.3392 132.774 23.9199C138.041 25.4964 142.677 29.3193 146.627 36.2287Z" stroke="white" stroke-opacity="0.26"/>
<path d="M165.692 92.67C161.719 108.113 149.889 119.968 133.905 126.629C117.921 133.289 97.8101 134.739 77.3678 129.371C56.9256 124.003 40.058 112.844 29.3064 99.1626C18.5552 85.4819 13.9347 69.3061 17.9069 53.8636C19.8935 46.1405 23.3565 41.2083 28.0179 38.2721C32.692 35.328 38.6428 34.3454 45.6914 34.6721C52.7393 34.9989 60.8317 36.6311 69.749 38.864C78.676 41.0994 88.3606 43.9178 98.6534 46.6206C108.946 49.3234 118.764 51.626 127.639 54.0652C136.504 56.5017 144.359 59.057 150.672 62.2388C156.987 65.421 161.711 69.2066 164.375 74.0777C167.031 78.9355 167.678 84.9469 165.692 92.67Z" stroke="white" stroke-opacity="0.42"/>
</svg>
