<svg width="176" height="176" viewBox="0 0 176 176" fill="none" xmlns="http://www.w3.org/2000/svg">
<path d="M144.462 23.4609C146.296 25.2016 148.056 27.0231 149.736 28.9199H149.737L149.363 29.251C151.029 31.1316 152.616 33.0872 154.119 35.1113L154.52 34.8145C156.025 36.8415 157.445 38.9374 158.777 41.0967L158.354 41.3594C159.671 43.4948 160.901 45.6924 162.037 47.9473L162.482 47.7227C163.617 49.9741 164.659 52.2822 165.604 54.6416L165.142 54.8271C166.073 57.1528 166.911 59.5292 167.647 61.9502L168.125 61.8047V61.8037C168.857 64.2102 169.49 66.6612 170.021 69.1514H170.022L169.534 69.2559C170.055 71.6995 170.476 74.1819 170.793 76.6973L171.288 76.6348C171.602 79.1258 171.813 81.6494 171.919 84.2012L171.422 84.2217C171.474 85.4745 171.5 86.7341 171.5 88C171.5 89.2659 171.474 90.5255 171.422 91.7783L171.919 91.7979C171.813 94.3496 171.602 96.8732 171.288 99.3643L170.793 99.3027C170.476 101.818 170.055 104.301 169.534 106.744L170.021 106.848C169.49 109.338 168.857 111.789 168.125 114.195L167.647 114.05C166.911 116.471 166.073 118.847 165.142 121.173L165.604 121.357C164.659 123.717 163.617 126.025 162.482 128.276L162.037 128.053C160.901 130.308 159.671 132.505 158.354 134.641L158.777 134.902C157.445 137.062 156.025 139.157 154.52 141.185L154.119 140.889C152.616 142.913 151.029 144.868 149.363 146.749L149.736 147.079C148.056 148.976 146.296 150.797 144.462 152.538L144.119 152.177C142.293 153.91 140.392 155.562 138.423 157.128L138.732 157.518C136.752 159.093 134.704 160.581 132.591 161.978L132.316 161.562C130.22 162.948 128.059 164.242 125.842 165.439L126.08 165.879C123.857 167.079 121.577 168.181 119.244 169.183L119.048 168.725C116.744 169.714 114.388 170.602 111.987 171.385L112.142 171.858C109.747 172.639 107.308 173.316 104.828 173.883L104.717 173.397C102.28 173.954 99.8042 174.404 97.2939 174.743L97.3604 175.237C94.8715 175.573 92.3491 175.801 89.7979 175.914L89.7764 175.416C88.5244 175.472 87.2654 175.5 86 175.5C84.7346 175.5 83.4756 175.472 82.2236 175.416L82.2012 175.914C79.6499 175.801 77.1276 175.573 74.6387 175.237L74.7061 174.743C72.1958 174.404 69.7198 173.954 67.2832 173.397L67.1709 173.883C64.6909 173.316 62.2515 172.639 59.8574 171.858L60.0127 171.385C57.6116 170.602 55.256 169.714 52.9521 168.725L52.7549 169.183C50.4224 168.181 48.1416 167.079 45.9189 165.879L46.1582 165.439C43.9408 164.242 41.7804 162.948 39.6836 161.562L39.4082 161.978C37.2954 160.581 35.2467 159.093 33.2666 157.518L33.5771 157.128C31.6081 155.562 29.7071 153.91 27.8809 152.177L27.5371 152.538C25.7028 150.797 23.9429 148.976 22.2627 147.079L22.6367 146.749C20.9708 144.868 19.3838 142.913 17.8809 140.889L17.4795 141.185C15.9745 139.157 14.5535 137.062 13.2217 134.902L13.6465 134.641C12.3294 132.505 11.0993 130.308 9.96289 128.053L9.5166 128.276C8.38196 126.025 7.33975 123.717 6.39453 121.357L6.8584 121.173C5.92665 118.847 5.08927 116.471 4.35254 114.05L3.875 114.195H3.87402C3.14172 111.789 2.50857 109.338 1.97754 106.848L2.46582 106.744C1.9447 104.301 1.52402 101.818 1.20703 99.3027L0.710938 99.3643C0.397058 96.8733 0.185969 94.3496 0.0800781 91.7979L0.578125 91.7783C0.526123 90.5255 0.5 89.2659 0.5 88C0.5 86.7341 0.526123 85.4745 0.578125 84.2217L0.0800781 84.2012C0.185996 81.6494 0.397032 79.1258 0.710938 76.6348L1.20703 76.6973C1.52402 74.1819 1.9447 71.6995 2.46582 69.2559L1.97754 69.1514C2.50859 66.6612 3.1417 64.2102 3.87402 61.8037L3.875 61.8047L4.35254 61.9502C5.08927 59.5292 5.92665 57.1528 6.8584 54.8271L6.39453 54.6416C7.33977 52.2823 8.38194 49.9741 9.5166 47.7227L9.96289 47.9473C11.0993 45.6924 12.3294 43.4948 13.6465 41.3594L13.2217 41.0967C14.5535 38.9374 15.9745 36.8415 17.4795 34.8145L17.8809 35.1113C19.3838 33.0872 20.9708 31.1316 22.6367 29.251L22.2627 28.9199C23.9061 27.0647 25.6252 25.2811 27.416 23.5752L27.5371 23.4609L27.8809 23.8232C29.7071 22.0903 31.6081 20.4382 33.5771 18.8721L33.2666 18.4814C35.2467 16.9065 37.2954 15.4176 39.4082 14.0215L39.6836 14.4375C41.7804 13.052 43.9408 11.7579 46.1582 10.5605L45.9199 10.1211L45.9189 10.1201C48.1416 8.91995 50.4224 7.81769 52.7549 6.81641L52.9521 7.27539C55.256 6.2864 57.6116 5.3983 60.0127 4.61523L59.8574 4.14062C62.2515 3.35984 64.6909 2.68303 67.1709 2.11621L67.2832 2.60254C69.7198 2.04568 72.1958 1.59583 74.7061 1.25684L74.6387 0.761719C77.1275 0.425599 79.6499 0.198435 82.2012 0.0849609L82.2236 0.583984C83.4756 0.528306 84.7346 0.5 86 0.5C87.2654 0.5 88.5244 0.528307 89.7764 0.583984L89.7979 0.0849609C92.3491 0.198405 94.8715 0.425627 97.3604 0.761719L97.2939 1.25684C99.8042 1.59583 102.28 2.04568 104.717 2.60254L104.828 2.11621C107.308 2.683 109.748 3.35987 112.142 4.14062L111.987 4.61523C114.388 5.3983 116.744 6.2864 119.048 7.27539L119.244 6.81641C121.577 7.81767 123.857 8.91996 126.08 10.1201V10.1211L125.842 10.5605C128.059 11.7579 130.22 13.0519 132.316 14.4375L132.591 14.0215C134.704 15.4176 136.752 16.9065 138.732 18.4814L138.423 18.8721C140.392 20.4382 142.293 22.0903 144.119 23.8232L144.462 23.4609Z" stroke="white" stroke-dasharray="7.38 7.38"/>
</svg>
