<svg width="234" height="238" viewBox="0 0 234 238" fill="none" xmlns="http://www.w3.org/2000/svg">
<g filter="url(#filter0_d_563_2011)">
<path d="M174.974 51.9282C176.808 53.6688 178.568 55.4904 180.248 57.3872H180.249L179.875 57.7183C181.541 59.5989 183.128 61.5545 184.631 63.5786L185.031 63.2817C186.536 65.3088 187.957 67.4047 189.289 69.564L188.865 69.8267C190.182 71.9621 191.412 74.1597 192.549 76.4146L192.994 76.1899C194.129 78.4414 195.171 80.7495 196.116 83.1089L195.653 83.2944C196.585 85.6201 197.422 87.9965 198.159 90.4175L198.637 90.272V90.271C199.369 92.6775 200.002 95.1285 200.533 97.6187H200.534L200.046 97.7231C200.567 100.167 200.988 102.649 201.305 105.165L201.8 105.102C202.114 107.593 202.325 110.117 202.431 112.668L201.934 112.689C201.986 113.942 202.012 115.201 202.012 116.467C202.012 117.733 201.986 118.993 201.934 120.246L202.431 120.265C202.325 122.817 202.114 125.341 201.8 127.832L201.305 127.77C200.988 130.285 200.567 132.768 200.046 135.211L200.533 135.315C200.002 137.805 199.369 140.256 198.637 142.663L198.159 142.517C197.422 144.938 196.585 147.314 195.653 149.64L196.116 149.825C195.171 152.184 194.129 154.492 192.994 156.744L192.549 156.52C191.412 158.775 190.182 160.972 188.865 163.108L189.289 163.37C187.957 165.529 186.536 167.625 185.031 169.652L184.631 169.356C183.128 171.38 181.541 173.336 179.875 175.216L180.248 175.546C178.568 177.443 176.808 179.265 174.974 181.005L174.631 180.644C172.805 182.377 170.904 184.029 168.935 185.595L169.244 185.985C167.264 187.56 165.215 189.049 163.103 190.445L162.828 190.03C160.731 191.415 158.571 192.709 156.354 193.907L156.592 194.346C154.369 195.546 152.088 196.649 149.756 197.65L149.56 197.192C147.256 198.181 144.9 199.069 142.499 199.852L142.653 200.326C140.259 201.106 137.82 201.783 135.34 202.35L135.229 201.865C132.792 202.422 130.316 202.871 127.806 203.21L127.872 203.705C125.383 204.041 122.861 204.268 120.31 204.381L120.288 203.883C119.036 203.939 117.777 203.967 116.512 203.967C115.246 203.967 113.987 203.939 112.735 203.883L112.713 204.381C110.162 204.268 107.639 204.041 105.15 203.705L105.218 203.21C102.708 202.871 100.232 202.422 97.7949 201.865L97.6826 202.35C95.2026 201.783 92.7632 201.106 90.3691 200.326L90.5244 199.852C88.1233 199.069 85.7677 198.181 83.4639 197.192L83.2666 197.65C80.9341 196.649 78.6533 195.546 76.4307 194.346L76.6699 193.907C74.4525 192.709 72.2921 191.415 70.1953 190.03L69.9199 190.445C67.8071 189.049 65.7584 187.56 63.7783 185.985L64.0889 185.595C62.1199 184.029 60.2189 182.377 58.3926 180.644L58.0488 181.005C56.2145 179.265 54.4546 177.443 52.7744 175.546L53.1484 175.216C51.4826 173.336 49.8955 171.38 48.3926 169.356L47.9912 169.652C46.4862 167.625 45.0652 165.529 43.7334 163.37L44.1582 163.108C42.8411 160.972 41.611 158.775 40.4746 156.52L40.0283 156.744C38.8937 154.492 37.8515 152.184 36.9062 149.825L37.3701 149.64C36.4384 147.314 35.601 144.938 34.8643 142.517L34.3867 142.663H34.3857C33.6534 140.256 33.0203 137.805 32.4893 135.315L32.9775 135.211C32.4564 132.768 32.0357 130.285 31.7188 127.77L31.2227 127.832C30.9088 125.341 30.6977 122.817 30.5918 120.265L31.0898 120.246C31.0378 118.993 31.0117 117.733 31.0117 116.467C31.0117 115.201 31.0378 113.942 31.0898 112.689L30.5918 112.668C30.6977 110.117 30.9088 107.593 31.2227 105.102L31.7188 105.165C32.0357 102.649 32.4564 100.167 32.9775 97.7231L32.4893 97.6187C33.0203 95.1285 33.6534 92.6774 34.3857 90.271L34.3867 90.272L34.8643 90.4175C35.601 87.9965 36.4384 85.6201 37.3701 83.2944L36.9062 83.1089C37.8515 80.7495 38.8937 78.4414 40.0283 76.1899L40.4746 76.4146C41.611 74.1597 42.8411 71.9621 44.1582 69.8267L43.7334 69.564C45.0652 67.4047 46.4862 65.3088 47.9912 63.2817L48.3926 63.5786C49.8955 61.5545 51.4826 59.5989 53.1484 57.7183L52.7744 57.3872C54.4178 55.532 56.1369 53.7484 57.9277 52.0425L58.0488 51.9282L58.3926 52.2905C60.2189 50.5575 62.1199 48.9055 64.0889 47.3394L63.7783 46.9487C65.7584 45.3738 67.8071 43.8849 69.9199 42.4888L70.1953 42.9048C72.2921 41.5192 74.4525 40.2252 76.6699 39.0278L76.4316 38.5884L76.4307 38.5874C78.6533 37.3872 80.9341 36.285 83.2666 35.2837L83.4639 35.7427C85.7677 34.7537 88.1233 33.8656 90.5244 33.0825L90.3691 32.6079C92.7632 31.8271 95.2026 31.1503 97.6826 30.5835L97.7949 31.0698C100.232 30.513 102.708 30.0631 105.218 29.7241L105.15 29.229C107.639 28.8929 110.162 28.6657 112.713 28.5522L112.735 29.0513C113.987 28.9956 115.246 28.9673 116.512 28.9673C117.777 28.9673 119.036 28.9956 120.288 29.0513L120.31 28.5522C122.861 28.6657 125.383 28.8929 127.872 29.229L127.806 29.7241C130.316 30.0631 132.792 30.513 135.229 31.0698L135.34 30.5835C137.82 31.1503 140.259 31.8272 142.653 32.6079L142.499 33.0825C144.9 33.8656 147.256 34.7537 149.56 35.7427L149.756 35.2837C152.088 36.285 154.369 37.3872 156.592 38.5874V38.5884L156.354 39.0278C158.571 40.2252 160.731 41.5192 162.828 42.9048L163.103 42.4888C165.215 43.8849 167.264 45.3738 169.244 46.9487L168.935 47.3394C170.904 48.9055 172.805 50.5575 174.631 52.2905L174.974 51.9282Z" stroke="white" stroke-dasharray="7.38 7.38" shape-rendering="crispEdges"/>
</g>
<defs>
<filter id="filter0_d_563_2011" x="0.000326157" y="0.000206709" width="233.023" height="237.023" filterUnits="userSpaceOnUse" color-interpolation-filters="sRGB">
<feFlood flood-opacity="0" result="BackgroundImageFix"/>
<feColorMatrix in="SourceAlpha" type="matrix" values="0 0 0 0 0 0 0 0 0 0 0 0 0 0 0 0 0 0 127 0" result="hardAlpha"/>
<feOffset dy="2.04431"/>
<feGaussianBlur stdDeviation="15.2557"/>
<feComposite in2="hardAlpha" operator="out"/>
<feColorMatrix type="matrix" values="0 0 0 0 0.964706 0 0 0 0 0.956863 0 0 0 0 0.952941 0 0 0 1 0"/>
<feBlend mode="normal" in2="BackgroundImageFix" result="effect1_dropShadow_563_2011"/>
<feBlend mode="normal" in="SourceGraphic" in2="effect1_dropShadow_563_2011" result="shape"/>
</filter>
</defs>
</svg>
