<svg width="161" height="160" viewBox="0 0 161 160" fill="none" xmlns="http://www.w3.org/2000/svg">
<circle opacity="0.26" cx="144.995" cy="80.7939" r="14.9614" stroke="white"/>
<path opacity="0.3" d="M129.362 58.3052C141.557 58.3053 151.428 68.0059 151.428 79.9526C151.428 91.8993 141.557 101.6 129.362 101.6C117.167 101.6 107.297 91.8994 107.297 79.9526C107.297 68.0059 117.167 58.3052 129.362 58.3052Z" stroke="white"/>
<path opacity="0.3" d="M34.8838 58.2925C47.0789 58.2926 56.9492 67.9932 56.9492 79.9399C56.9492 91.8866 47.0788 101.587 34.8838 101.587C22.6887 101.587 12.8184 91.8867 12.8184 79.9399C12.8184 67.9932 22.6886 58.2925 34.8838 58.2925Z" stroke="white"/>
<circle opacity="0.7" cx="104.87" cy="79.831" r="30.4228" stroke="white"/>
<circle opacity="0.26" cx="15.4614" cy="79.4135" r="14.9614" stroke="white"/>
<circle opacity="0.7" cx="50.497" cy="79.8188" r="30.4228" stroke="white"/>
<path d="M79.3545 40.5C100.767 40.5 118.135 58.0447 118.135 79.6982C118.135 101.352 100.767 118.896 79.3545 118.896C57.9417 118.896 40.5743 101.352 40.5742 79.6982C40.5742 58.0447 57.9417 40.5 79.3545 40.5Z" stroke="white"/>
</svg>
