<svg width="176" height="176" viewBox="0 0 176 176" fill="none" xmlns="http://www.w3.org/2000/svg">
<path d="M73.126 9.79004C82.2403 4.15146 93.7597 4.15146 102.874 9.79004C107.355 12.5624 112.503 14.0735 117.771 14.1641C128.487 14.3483 138.178 20.5762 142.797 30.2471C145.068 35.002 148.58 39.0558 152.964 41.9805C161.879 47.9288 166.664 58.407 165.321 69.04C164.661 74.2682 165.425 79.5778 167.531 84.4082C171.815 94.232 170.176 105.634 163.298 113.853C159.916 117.894 157.687 122.773 156.848 127.976C155.14 138.556 147.597 147.262 137.367 150.458C132.337 152.029 127.824 154.929 124.306 158.852C117.149 166.83 106.096 170.075 95.7627 167.232C90.6819 165.835 85.3181 165.835 80.2373 167.232C69.9036 170.075 58.8509 166.83 51.6943 158.852C48.1755 154.929 43.6628 152.029 38.6328 150.458C28.4028 147.262 20.8596 138.556 19.1523 127.976C18.3129 122.773 16.0841 117.894 12.7021 113.853C5.8242 105.634 4.18486 94.232 8.46875 84.4082C10.5752 79.5778 11.3389 74.2682 10.6787 69.04C9.33591 58.407 14.1209 47.9288 23.0361 41.9805C27.4195 39.0558 30.932 35.002 33.2031 30.2471C37.8221 20.5762 47.5128 14.3483 58.2285 14.1641C63.4973 14.0735 68.6446 12.5624 73.126 9.79004Z" stroke="white" stroke-opacity="0.33"/>
<g filter="url(#filter0_d_574_2136)">
<circle cx="87.5081" cy="87.9998" r="37.3547" stroke="white" shape-rendering="crispEdges"/>
</g>
<defs>
<filter id="filter0_d_574_2136" x="25.9054" y="27.9883" width="123.206" height="123.205" filterUnits="userSpaceOnUse" color-interpolation-filters="sRGB">
<feFlood flood-opacity="0" result="BackgroundImageFix"/>
<feColorMatrix in="SourceAlpha" type="matrix" values="0 0 0 0 0 0 0 0 0 0 0 0 0 0 0 0 0 0 127 0" result="hardAlpha"/>
<feOffset dy="1.59115"/>
<feGaussianBlur stdDeviation="11.8739"/>
<feComposite in2="hardAlpha" operator="out"/>
<feColorMatrix type="matrix" values="0 0 0 0 0.964706 0 0 0 0 0.956863 0 0 0 0 0.952941 0 0 0 1 0"/>
<feBlend mode="normal" in2="BackgroundImageFix" result="effect1_dropShadow_574_2136"/>
<feBlend mode="normal" in="SourceGraphic" in2="effect1_dropShadow_574_2136" result="shape"/>
</filter>
</defs>
</svg>
