<svg width="160" height="160" viewBox="0 0 160 160" fill="none" xmlns="http://www.w3.org/2000/svg">
<path d="M66.502 8.93848C74.7731 3.82156 85.2269 3.82156 93.498 8.93848C97.5789 11.463 102.266 12.8394 107.063 12.9219C116.788 13.0889 125.582 18.7404 129.773 27.5166C131.842 31.8469 135.041 35.5387 139.033 38.2021C147.123 43.6002 151.466 53.1087 150.247 62.7578C149.646 67.5188 150.342 72.3542 152.26 76.7529C156.147 85.668 154.659 96.015 148.417 103.474C145.337 107.154 143.308 111.598 142.544 116.335C140.995 125.937 134.149 133.836 124.865 136.736C120.285 138.167 116.176 140.809 112.972 144.381C106.477 151.621 96.4469 154.566 87.0693 151.986C82.4423 150.714 77.5577 150.714 72.9307 151.986C63.5531 154.566 53.5228 151.621 47.0283 144.381C43.824 140.809 39.7152 138.167 35.1348 136.736C25.8514 133.836 19.0055 125.937 17.4561 116.335C16.6916 111.598 14.6627 107.154 11.583 103.474C5.34115 96.015 3.85269 85.668 7.74023 76.7529C9.65846 72.3542 10.3542 67.5188 9.75293 62.7578C8.53443 53.1087 12.8766 43.6002 20.9668 38.2021C24.9587 35.5387 28.1584 31.8469 30.2266 27.5166C34.4183 18.7404 43.2121 13.0889 52.9365 12.9219C57.7344 12.8394 62.4211 11.463 66.502 8.93848Z" stroke="white" stroke-opacity="0.18"/>
<path d="M70.9746 32.1719C76.5052 28.7504 83.4948 28.7504 89.0254 32.1719C91.8049 33.8914 94.9977 34.8286 98.2656 34.8848C104.768 34.9966 110.648 38.7752 113.451 44.6436C114.86 47.5929 117.038 50.1078 119.757 51.9219C125.166 55.5313 128.07 61.8889 127.256 68.3408C126.846 71.5835 127.319 74.8771 128.626 77.873C131.226 83.8342 130.231 90.7529 126.058 95.7402C123.96 98.2468 122.577 101.273 122.057 104.5C121.021 110.92 116.444 116.202 110.236 118.142C107.117 119.116 104.317 120.916 102.135 123.349C97.7921 128.19 91.0849 130.158 84.8145 128.434C81.6633 127.567 78.3367 127.567 75.1855 128.434C68.9151 130.158 62.2079 128.19 57.8652 123.349C55.6827 120.916 52.8835 119.116 49.7637 118.142C43.5564 116.202 38.9793 110.92 37.9434 104.5C37.4227 101.273 36.04 98.2468 33.9424 95.7402C29.7688 90.7529 28.7745 83.8342 31.374 77.873C32.6805 74.8771 33.1536 71.5835 32.7441 68.3408C31.9295 61.8889 34.8336 55.5313 40.2432 51.9219C42.962 50.1078 45.1402 47.5929 46.5488 44.6436C49.3516 38.7752 55.2321 34.9966 61.7344 34.8848C65.0023 34.8286 68.1951 33.8914 70.9746 32.1719Z" stroke="white"/>
</svg>
