<svg width="160" height="160" viewBox="0 0 160 160" fill="none" xmlns="http://www.w3.org/2000/svg">
<path opacity="0.3" d="M79.3896 15.1567C118.92 15.157 150.95 46.6572 150.95 85.4966C150.95 124.336 118.92 155.836 79.3896 155.836C39.8595 155.836 7.82821 124.336 7.82812 85.4966C7.82812 46.6571 39.8595 15.1567 79.3896 15.1567Z" stroke="white"/>
<circle opacity="0.26" cx="80" cy="80" r="79.5" stroke="white"/>
<circle opacity="0.7" cx="79.3893" cy="90.382" r="59.3473" stroke="white"/>
<path d="M80 51.7979C104.338 51.7979 124.08 71.8 124.08 96.4883C124.08 121.177 104.338 141.18 80 141.18C55.6616 141.18 35.9199 121.177 35.9199 96.4883C35.9201 71.8 55.6618 51.7979 80 51.7979Z" stroke="white"/>
</svg>
