<svg width="160" height="160" viewBox="0 0 160 160" fill="none" xmlns="http://www.w3.org/2000/svg">
<g clip-path="url(#clip0_534_937)">
<path d="M80.001 52.7852C96.1722 52.7853 109.259 65.5509 109.259 81.2705C109.259 96.9902 96.1723 109.756 80.001 109.756C63.8295 109.756 50.7422 96.9903 50.7422 81.2705C50.7423 65.5508 63.8296 52.7852 80.001 52.7852Z" stroke="white"/>
<path opacity="0.1" d="M112.889 9C141.067 9 160 35.4889 160 60.2C160 110.244 81.4222 151.222 79.9999 151.222C78.5777 151.222 0 110.244 0 60.2C0 35.4889 18.9333 9 47.1111 9C63.2888 9 73.8666 17.0889 79.9999 24.2C86.1333 17.0889 96.711 9 112.889 9Z" stroke="white" stroke-linecap="round" stroke-linejoin="round"/>
<path opacity="0.5" d="M104.219 31.4155C124.638 31.4155 138.358 50.5624 138.358 68.4242C138.358 104.598 81.4176 134.217 80.387 134.217C79.3564 134.217 22.416 104.598 22.416 68.4242C22.416 50.5624 36.1358 31.4155 56.5545 31.4155C68.2775 31.4155 75.9425 37.2624 80.387 42.4025C84.8314 37.2624 92.4965 31.4155 104.219 31.4155Z" stroke="white" stroke-linecap="round" stroke-linejoin="round"/>
</g>
<defs>
<clipPath id="clip0_534_937">
<rect width="160" height="160" fill="white"/>
</clipPath>
</defs>
</svg>
