<svg width="160" height="160" viewBox="0 0 160 160" fill="none" xmlns="http://www.w3.org/2000/svg">
<path d="M79.5205 42.7168C108.136 42.7168 131.343 66.1626 131.343 95.0957C131.343 124.029 108.136 147.475 79.5205 147.475C50.9048 147.475 27.6982 124.029 27.6982 95.0957C27.6983 66.1627 50.9048 42.7168 79.5205 42.7168Z" stroke="white"/>
<path d="M69.793 7.33105C76.2451 3.22875 84.4992 3.27571 90.9043 7.45117L137.741 37.9834C143.263 41.5828 146.593 47.7283 146.593 54.3193V140C146.593 150.769 137.862 159.5 127.093 159.5H32C21.2304 159.5 12.5 150.77 12.5 140V54.4668C12.5001 47.7972 15.9089 41.5903 21.5371 38.0117L69.793 7.33105Z" stroke="white" stroke-opacity="0.3"/>
</svg>
