<svg width="176" height="176" viewBox="0 0 176 176" fill="none" xmlns="http://www.w3.org/2000/svg">
<mask id="path-1-inside-1_563_2082" fill="white">
<path d="M87.7715 32.001C103.898 40.5079 114.893 57.4379 114.893 76.9385C114.893 96.4389 103.898 113.368 87.7715 121.875C71.6449 113.368 60.6504 96.439 60.6504 76.9385C60.6504 57.4378 71.6446 40.5079 87.7715 32.001Z"/>
</mask>
<path d="M87.7715 32.001L87.9532 31.6565L87.7715 31.5607L87.5898 31.6565L87.7715 32.001ZM114.893 76.9385H115.282V76.9385H114.893ZM87.7715 121.875L87.5898 122.219L87.7715 122.315L87.9532 122.219L87.7715 121.875ZM60.6504 76.9385H60.2609V76.9385H60.6504ZM87.7715 32.001L87.5898 32.3454C103.594 40.7877 114.503 57.588 114.503 76.9385H114.893H115.282C115.282 57.2877 104.203 40.2282 87.9532 31.6565L87.7715 32.001ZM114.893 76.9385H114.503C114.503 96.2887 103.594 113.088 87.5898 121.531L87.7715 121.875L87.9532 122.219C104.202 113.648 115.282 96.5891 115.282 76.9385H114.893ZM87.7715 121.875L87.9532 121.531C71.9492 113.088 61.0399 96.2888 61.0399 76.9385H60.6504H60.2609C60.2609 96.5892 71.3405 113.648 87.5898 122.219L87.7715 121.875ZM60.6504 76.9385H61.0399C61.0399 57.5879 71.949 40.7877 87.9532 32.3454L87.7715 32.001L87.5898 31.6565C71.3403 40.2281 60.2609 57.2876 60.2609 76.9385H60.6504Z" fill="white" mask="url(#path-1-inside-1_563_2082)"/>
<g opacity="0.22">
<mask id="path-3-inside-2_563_2082" fill="white">
<path d="M162.291 74.9083C162.988 93.1278 153.823 111.114 136.935 120.865C120.047 130.615 99.8876 129.558 84.457 119.845C83.7611 101.626 92.9248 83.6394 109.813 73.8892C126.701 64.1387 146.861 65.195 162.291 74.9083Z"/>
</mask>
<path d="M162.291 74.9083L162.681 74.8935L162.673 74.6882L162.499 74.5787L162.291 74.9083ZM136.935 120.865L137.13 121.202L137.13 121.202L136.935 120.865ZM84.457 119.845L84.0678 119.86L84.0757 120.065L84.2495 120.175L84.457 119.845ZM109.813 73.8892L109.618 73.5519V73.5519L109.813 73.8892ZM162.291 74.9083L161.902 74.9232C162.593 93.0041 153.498 110.852 136.74 120.527L136.935 120.865L137.13 121.202C154.148 111.377 163.382 93.2515 162.681 74.8935L162.291 74.9083ZM136.935 120.865L136.74 120.527C119.982 130.203 99.9777 129.154 84.6645 119.515L84.457 119.845L84.2495 120.175C99.7975 129.961 120.112 131.027 137.13 121.202L136.935 120.865ZM84.457 119.845L84.8462 119.83C84.1555 101.749 93.2496 83.9016 110.007 74.2265L109.813 73.8892L109.618 73.5519C92.6 83.3772 83.3666 101.502 84.0678 119.86L84.457 119.845ZM109.813 73.8892L110.007 74.2265C126.766 64.551 146.771 65.5985 162.084 75.2379L162.291 74.9083L162.499 74.5787C146.951 64.7916 126.636 63.7263 109.618 73.5519L109.813 73.8892Z" fill="white" mask="url(#path-3-inside-2_563_2082)"/>
</g>
<g opacity="0.22">
<mask id="path-5-inside-3_563_2082" fill="white">
<path d="M13.5605 74.9734C28.9911 65.2606 49.15 64.2043 66.0381 73.9546C82.9259 83.7048 92.0897 101.691 91.3937 119.91C75.9632 129.623 55.8048 130.68 38.917 120.93C22.0292 111.179 12.8644 93.1929 13.5605 74.9734Z"/>
</mask>
<path d="M13.5605 74.9734L13.3531 74.6438L13.1792 74.7532L13.1714 74.9585L13.5605 74.9734ZM66.0381 73.9546L66.2328 73.6173V73.6173L66.0381 73.9546ZM91.3937 119.91L91.6011 120.24L91.775 120.131L91.7829 119.925L91.3937 119.91ZM38.917 120.93L38.7223 121.267L38.7223 121.267L38.917 120.93ZM13.5605 74.9734L13.768 75.303C29.0812 65.6641 49.0854 64.6166 65.8433 74.2919L66.0381 73.9546L66.2328 73.6173C49.2147 63.7919 28.901 64.8572 13.3531 74.6438L13.5605 74.9734ZM66.0381 73.9546L65.8433 74.2919C82.6011 83.967 91.6952 101.815 91.0045 119.896L91.3937 119.91L91.7829 119.925C92.4841 101.567 83.2507 83.4426 66.2328 73.6173L66.0381 73.9546ZM91.3937 119.91L91.1862 119.581C75.8731 129.219 55.8694 130.268 39.1117 120.592L38.917 120.93L38.7223 121.267C55.7401 131.092 76.0533 130.026 91.6011 120.24L91.3937 119.91ZM38.917 120.93L39.1117 120.592C22.354 110.917 13.2589 93.0692 13.9497 74.9882L13.5605 74.9734L13.1714 74.9585C12.4699 93.3166 21.7044 111.442 38.7223 121.267L38.917 120.93Z" fill="white" mask="url(#path-5-inside-3_563_2082)"/>
</g>
<g opacity="0.22">
<mask id="path-7-inside-4_563_2082" fill="white">
<path d="M41.6959 46.4047C59.878 45.0481 78.1853 53.5541 88.5419 70.077C98.8986 86.6002 98.5736 106.785 89.427 122.558C71.245 123.914 52.9388 115.408 42.5823 98.8856C32.2256 82.3622 32.5491 62.1777 41.6959 46.4047Z"/>
</mask>
<path d="M41.6959 46.4047L41.6669 46.0163L41.462 46.0316L41.359 46.2093L41.6959 46.4047ZM88.5419 70.077L88.8719 69.8702L88.8719 69.8701L88.5419 70.077ZM89.427 122.558L89.456 122.946L89.6609 122.931L89.764 122.753L89.427 122.558ZM42.5823 98.8856L42.2524 99.0924V99.0924L42.5823 98.8856ZM41.6959 46.4047L41.7248 46.7931C59.7687 45.4468 77.9351 53.8882 88.2119 70.2838L88.5419 70.077L88.8719 69.8701C78.4355 53.22 59.9874 44.6494 41.6669 46.0163L41.6959 46.4047ZM88.5419 70.077L88.2119 70.2838C98.4889 86.6798 98.1671 106.709 89.0901 122.362L89.427 122.558L89.764 122.753C98.9801 106.86 99.3084 86.5206 88.8719 69.8702L88.5419 70.077ZM89.427 122.558L89.3981 122.169C71.3543 123.515 53.1891 115.074 42.9123 98.6787L42.5823 98.8856L42.2524 99.0924C52.6886 115.742 71.1357 124.313 89.456 122.946L89.427 122.558ZM42.5823 98.8856L42.9123 98.6787C32.6353 82.2826 32.9556 62.2531 42.0328 46.6001L41.6959 46.4047L41.359 46.2093C32.1426 62.1023 31.8158 82.4418 42.2524 99.0924L42.5823 98.8856Z" fill="white" mask="url(#path-7-inside-4_563_2082)"/>
</g>
<g opacity="0.22">
<mask id="path-9-inside-5_563_2082" fill="white">
<path d="M135.722 46.4042C117.54 45.0474 99.2329 53.5535 88.8762 70.0765C78.5195 86.5998 78.8444 106.784 87.9911 122.557C106.173 123.913 124.48 115.408 134.837 98.8856C145.193 82.3622 144.869 62.1772 135.722 46.4042Z"/>
</mask>
<path d="M135.722 46.4042L135.751 46.0158L135.956 46.0311L136.059 46.2088L135.722 46.4042ZM88.8762 70.0765L88.5462 69.8696L88.5462 69.8696L88.8762 70.0765ZM87.9911 122.557L87.9621 122.945L87.7572 122.93L87.6542 122.752L87.9911 122.557ZM134.837 98.8856L135.167 99.0924L135.167 99.0924L134.837 98.8856ZM135.722 46.4042L135.693 46.7926C117.649 45.4461 99.4831 53.8876 89.2062 70.2833L88.8762 70.0765L88.5462 69.8696C98.9827 53.2194 117.431 44.6487 135.751 46.0158L135.722 46.4042ZM88.8762 70.0765L89.2062 70.2833C78.9292 86.6794 79.2508 106.709 88.328 122.362L87.9911 122.557L87.6542 122.752C78.4379 106.859 78.1097 86.5202 88.5462 69.8696L88.8762 70.0765ZM87.9911 122.557L88.02 122.169C106.064 123.515 124.23 115.074 134.507 98.6787L134.837 98.8856L135.167 99.0924C124.73 115.742 106.282 124.312 87.9621 122.945L87.9911 122.557ZM134.837 98.8856L134.507 98.6787C144.784 82.2826 144.463 62.2526 135.385 46.5996L135.722 46.4042L136.059 46.2088C145.275 62.1018 145.603 82.4418 135.167 99.0924L134.837 98.8856Z" fill="white" mask="url(#path-9-inside-5_563_2082)"/>
</g>
</svg>
