<svg width="176" height="176" viewBox="0 0 176 176" fill="none" xmlns="http://www.w3.org/2000/svg">
<path opacity="0.7" d="M87.5 0.5C102.403 0.5 114.5 12.8036 114.5 28C114.5 43.1964 102.403 55.5 87.5 55.5C72.5968 55.5 60.5 43.1964 60.5 28C60.5 12.8036 72.5968 0.5 87.5 0.5Z" stroke="white"/>
<path d="M87.5 19.5C129.462 19.5 163.5 54.4095 163.5 97.5C163.5 140.59 129.462 175.5 87.5 175.5C45.5384 175.5 11.5 140.59 11.5 97.5C11.5 54.4095 45.5384 19.5 87.5 19.5Z" stroke="white"/>
<path d="M87 23L90.8456 86.141L127.548 35.1441L97.316 90.3824L155.222 67.7207L100.511 97.5185L161.237 110.387L99.4165 105.284L143.681 149.597L94.3797 111.213L108.13 172.901L87 113.423L65.8701 172.901L79.6203 111.213L30.3188 149.597L74.5835 105.284L12.7634 110.387L73.4889 97.5185L18.7776 67.7207L76.684 90.3824L46.4519 35.1441L83.1544 86.141L87 23Z" fill="url(#paint0_radial_563_2016)"/>
<defs>
<radialGradient id="paint0_radial_563_2016" cx="0" cy="0" r="1" gradientTransform="matrix(1.50881 76.6924 -75.1886 1.53898 87.0629 99.5641)" gradientUnits="userSpaceOnUse">
<stop stop-color="white" stop-opacity="0"/>
<stop offset="0.777657" stop-color="white" stop-opacity="0"/>
<stop offset="1" stop-color="white"/>
</radialGradient>
</defs>
</svg>
