<svg width="160" height="160" viewBox="0 0 160 160" fill="none" xmlns="http://www.w3.org/2000/svg">
<circle opacity="0.7" cx="78.2663" cy="79.2291" r="16.3297" stroke="white"/>
<path d="M79.5059 25.5C102.116 25.5001 121.806 35.0038 135.85 46.584C142.87 52.3734 148.469 58.6732 152.309 64.5459C156.158 70.4338 158.202 75.8363 158.202 79.8408C158.202 83.8643 156.455 89.2767 152.997 95.1572C149.546 101.027 144.416 107.321 137.711 113.105C124.304 124.672 104.618 134.183 79.5059 134.183C54.3953 134.183 34.709 124.564 21.3008 112.942C14.5954 107.13 9.46492 100.821 6.01367 94.9717C2.55524 89.1099 0.808594 83.7531 0.808594 79.8408C0.808764 75.9476 2.85164 70.6008 6.70215 64.7314C10.542 58.8785 16.1409 52.564 23.1621 46.7471C37.2066 35.1116 56.8974 25.5 79.5059 25.5Z" stroke="white"/>
<circle opacity="0.16" cx="77.9958" cy="80.1848" r="42.2185" stroke="white"/>
</svg>
