<svg width="176" height="176" viewBox="0 0 176 176" fill="none" xmlns="http://www.w3.org/2000/svg">
<circle opacity="0.26" cx="148.5" cy="129.5" r="27" stroke="white"/>
<path opacity="0.3" d="M132 76.5C154.379 76.5 172.5 94.1963 172.5 116C172.5 137.804 154.379 155.5 132 155.5C109.621 155.5 91.5 137.804 91.5 116C91.5 94.1963 109.621 76.5 132 76.5Z" stroke="white"/>
<circle opacity="0.7" cx="100" cy="103" r="55.5" stroke="white"/>
<path d="M70.5 16.5C109.153 16.5 140.5 48.2811 140.5 87.5C140.5 126.719 109.153 158.5 70.5 158.5C31.8467 158.5 0.5 126.719 0.5 87.5C0.5 48.2811 31.8467 16.5 70.5 16.5Z" stroke="white"/>
</svg>
