<svg width="161" height="160" viewBox="0 0 161 160" fill="none" xmlns="http://www.w3.org/2000/svg">
<path opacity="0.26" d="M125.961 7.57227C129.256 5.61357 133.902 6.38914 138.855 9.49805C143.783 12.5912 148.88 17.9217 152.95 24.7686C157.021 31.6156 159.269 38.6403 159.632 44.4473C159.997 50.2839 158.457 54.7356 155.162 56.6943C151.867 58.653 147.222 57.8784 142.269 54.7695C137.341 51.6764 132.243 46.3452 128.173 39.498C124.103 32.6509 121.855 25.6263 121.492 19.8193C121.128 13.9828 122.666 9.53101 125.961 7.57227Z" stroke="white"/>
<path opacity="0.3" d="M96.2559 8.67529C101.077 5.8091 107.87 7.03919 115.065 11.6313C122.233 16.2062 129.658 24.04 135.614 34.0591C141.57 44.0781 144.905 54.3433 145.499 62.8257C146.096 71.3404 143.93 77.8951 139.108 80.7612C134.287 83.6273 127.494 82.3983 120.299 77.8062C113.131 73.2314 105.707 65.3974 99.751 55.3784C93.795 45.3594 90.4606 35.0943 89.8662 26.6118C89.2696 18.097 91.4344 11.5415 96.2559 8.67529Z" stroke="white"/>
<path opacity="0.7" d="M53.5166 16.4604C60.3513 12.3976 69.864 14.0646 79.8252 20.3169C89.7613 26.5535 100.008 37.2787 108.181 51.0269C116.353 64.775 120.881 78.9005 121.612 90.6089C122.346 102.347 119.264 111.501 112.43 115.564C105.595 119.627 96.0813 117.96 86.1201 111.708C76.184 105.471 65.9384 94.7447 57.7656 80.9966C49.5928 67.2484 45.0656 53.1229 44.334 41.4146C43.6007 29.6767 46.682 20.5234 53.5166 16.4604Z" stroke="white"/>
<path d="M12.5908 23.1626C21.4369 17.9039 33.6695 20.0052 46.3984 27.9185C59.1036 35.8169 72.1706 49.4358 82.5605 66.9136C92.9503 84.3912 98.6714 102.376 99.54 117.311C100.41 132.274 96.4116 144.025 87.5654 149.284C78.7194 154.542 66.4867 152.441 53.7578 144.528C41.0527 136.629 27.9857 123.011 17.5957 105.533C7.20573 88.0549 1.48478 70.0692 0.616211 55.1343C-0.25392 40.1714 3.74472 28.4213 12.5908 23.1626Z" stroke="white"/>
</svg>
