<svg width="161" height="160" viewBox="0 0 161 160" fill="none" xmlns="http://www.w3.org/2000/svg">
<path d="M90.4348 83.9773L90.4256 86.1237C90.4189 87.6912 90.1599 89.2474 89.6585 90.7326C89.1582 92.2148 88.4231 93.6071 87.4812 94.8561L87.4134 94.946C86.4284 96.2521 85.2403 97.3919 83.8944 98.3219L83.4095 98.6569C82.2607 99.4507 81.0321 100.129 79.7055 100.565C78.7079 100.893 77.5042 101.236 76.5217 101.364C74.3559 101.644 70.9326 101.174 70.9326 101.174C70.9326 101.174 67.4621 100.273 65.4816 99.1684C63.4264 98.0222 62.3556 97.1539 60.7635 95.4231C59.1132 93.6291 58.3408 92.4284 57.3352 90.2096C56.2943 87.9128 55.9228 86.4834 55.6522 83.9773C55.5259 82.8082 55.5869 81.3375 55.6919 80.0754C55.845 78.2339 56.3503 76.4466 57.0211 74.7247L57.2223 74.2081C58.0769 72.0142 59.2748 69.9701 60.7711 68.1523C62.2664 66.3359 64.0407 64.7684 66.0277 63.5086L66.1216 63.449C68.1694 62.1507 70.4104 61.1855 72.7608 60.5897L72.8683 60.5625C75.2886 59.949 77.7909 59.7233 80.2819 59.8938L80.392 59.9014C82.9548 60.0769 85.4737 60.6576 87.8546 61.6221L87.9562 61.6633C90.4038 62.6547 92.6787 64.0278 94.6963 65.7316L94.7797 65.802C96.8521 67.5521 98.634 69.6196 100.059 71.9275L100.116 72.0201C101.579 74.389 102.657 76.9747 103.311 79.681L103.336 79.7871C104.006 82.563 104.233 85.4276 104.006 88.2743L103.998 88.3836C103.766 91.3018 103.073 94.1648 101.945 96.8662L101.903 96.968C100.748 99.7359 99.1615 102.303 97.2033 104.575L97.131 104.659C95.1257 106.985 92.765 108.98 90.1364 110.568L90.0415 110.626C87.351 112.251 84.4203 113.441 81.358 114.151L81.2503 114.176C78.1176 114.903 74.8898 115.129 71.6864 114.847L71.577 114.838C68.3017 114.549 65.0926 113.745 62.0685 112.454L61.9683 112.412C58.878 111.093 56.0156 109.294 53.4872 107.081L53.4056 107.01C50.8232 104.75 48.6143 102.096 46.8606 99.1461L46.8053 99.0531C45.0151 96.0418 43.7122 92.7664 42.9448 89.3482L42.9211 89.2423C42.138 85.7542 41.9164 82.1104 42.2544 78.5516C42.5991 74.9213 43.5423 71.2634 44.9963 67.9192C46.479 64.509 48.5497 61.2625 51.0169 58.4804C53.532 55.6442 56.5638 53.1536 59.8343 51.2371C63.1673 49.284 66.8895 47.8295 70.6637 47.0058C74.5087 46.1666 78.5704 45.9333 82.4861 46.3271C86.4737 46.7281 90.4772 47.7834 94.1442 49.4004C97.877 51.0465 101.417 53.3293 104.456 56.0512C107.548 58.8209 110.251 62.144 112.333 65.7358C114.45 69.3895 116.016 73.4541 116.897 77.5843C117.793 81.7844 118.026 86.2067 117.576 90.4777C117.118 94.8199 115.95 99.1673 114.17 103.154C112.36 107.207 109.862 111.039 106.885 114.332C103.86 117.677 100.241 120.594 96.3287 122.838C92.3533 125.119 87.9409 126.796 83.4547 127.734C78.8975 128.686 74.1104 128.918 69.4824 128.412C64.7826 127.898 60.0895 126.619 55.7798 124.675C51.4044 122.701 47.2784 119.992 43.7291 116.761C40.1268 113.481 36.9979 109.571 34.5883 105.337C32.1432 101.041 30.3538 96.2869 29.3595 91.4448C28.3508 86.5327 28.1186 81.3852 28.6808 76.4022C29.2512 71.348 30.644 66.311 32.7515 61.6819C34.8888 56.9872 37.8134 52.5678 41.2994 48.7656C44.8341 44.9101 49.0406 41.5677 53.5953 38.9958C58.2131 36.3882 63.3157 34.4866 68.5139 33.4362C73.7832 32.3715 79.2958 32.1393 84.6359 32.7576C90.0479 33.3841 95.4308 34.8886 100.383 37.1592C105.401 39.4599 110.114 42.5959 114.173 46.3366C118.285 50.1259 121.84 54.6227 124.578 59.4988C127.35 64.4371 129.363 69.8812 130.471 75.4352C131.592 81.0593 131.824 86.9319 131.149 92.6269C130.466 98.3932 128.849 104.12 126.414 109.391C123.95 114.728 120.598 119.734 116.603 124.046C112.558 128.411 107.765 132.18 102.568 135.079C97.3074 138.014 91.5147 140.14 85.6045 141.303C79.6231 142.48 73.385 142.712 67.3327 141.982C61.2085 141.242 55.1359 139.513 49.5408 136.916C43.8804 134.288 38.5814 130.725 34.0117 126.475C29.3896 122.176 25.4088 117.093 22.3437 111.574C19.2439 105.994 17.007 99.8598 15.7864 93.5938C14.5521 87.2578 14.3206 80.66 15.1078 74.253C15.9036 67.7748 17.7456 61.3586 20.5071 55.4447C23.299 49.4656 27.0772 43.8731 31.5821 39.0511C36.1365 34.1763 41.5173 29.9818 47.3564 26.7549C53.259 23.4928 59.7419 21.1435 66.364 19.867C73.0576 18.5768 80.0212 18.3453 86.7857 19.1884C93.622 20.0405 100.384 21.9937 106.622 24.9183C112.925 27.8735 118.811 31.8624 123.89 36.6222C129.022 41.431 133.429 47.1013 136.822 53.2618C140.249 59.4848 142.71 66.3082 144.044 73.2862C145.391 80.3343 145.622 87.6572 144.722 94.7762C143.813 101.966 141.747 109.072 138.659 115.628C135.539 122.25 131.334 128.429 126.32 133.761C121.256 139.145 115.288 143.766 108.807 147.32C102.261 150.909 95.0885 153.483 87.7543 154.872C80.3486 156.275 72.6596 156.506 65.183 155.551C57.6344 154.586 50.1822 152.408 43.302 149.157C36.3566 145.874 29.8843 141.459 24.2945 136.189C18.6526 130.871 13.8196 124.614 10.0993 117.811C6.34483 110.946 3.6601 103.433 2.21342 95.7428C0.75355 87.9828 0.52257 79.9347 1.53486 72.1037C2.55633 64.2018 4.84708 56.4062 8.26278 49.2077C11.7094 41.9441 16.3408 35.1783 21.8649 29.3368C27.4389 23.4427 33.9941 18.3957 41.1175 14.5141C48.305 10.5976 56.168 7.8004 64.2142 6.29803C72.3321 4.78228 80.7466 4.55114 88.9354 5.61936C97.1961 6.69697 105.338 9.09876 112.861 12.6775C120.449 16.2873 127.508 21.1289 133.608 26.908C139.759 32.7362 145.018 39.58 149.066 47.025C153.148 54.5325 156.047 62.683 157.607 71.0849L160 83.9773" stroke="url(#paint0_radial_543_1015)" stroke-linecap="round" stroke-linejoin="round"/>
<defs>
<radialGradient id="paint0_radial_543_1015" cx="0" cy="0" r="1" gradientUnits="userSpaceOnUse" gradientTransform="translate(80 80.5) rotate(90) scale(76.5 80)">
<stop stop-color="white"/>
<stop offset="1" stop-color="white" stop-opacity="0"/>
</radialGradient>
</defs>
</svg>
