<svg width="176" height="176" viewBox="0 0 176 176" fill="none" xmlns="http://www.w3.org/2000/svg">
<path d="M71.4629 35.7363C73.387 31.3476 79.613 31.3476 81.5371 35.7363L98.416 74.2402C99.0712 75.735 100.265 76.9288 101.76 77.584L140.264 94.4629C144.652 96.387 144.652 102.613 140.264 104.537L101.76 121.416C100.265 122.071 99.0712 123.265 98.416 124.76L81.5371 163.264C79.613 167.652 73.387 167.652 71.4629 163.264L54.584 124.76C53.9288 123.265 52.735 122.071 51.2402 121.416L12.7363 104.537C8.34758 102.613 8.34758 96.387 12.7363 94.4629L51.2402 77.584C52.735 76.9288 53.9288 75.735 54.584 74.2402L71.4629 35.7363Z" stroke="white"/>
<path opacity="0.7" d="M128.452 12.9189C130.366 8.49883 136.634 8.49882 138.548 12.9189L144.148 25.8584C144.797 27.356 145.985 28.5547 147.477 29.2168L160.443 34.9727C164.801 36.9072 164.801 43.0928 160.443 45.0273L147.477 50.7832C145.985 51.4453 144.797 52.644 144.148 54.1416L138.548 67.0811C136.634 71.5012 130.366 71.5012 128.452 67.0811L122.852 54.1416C122.203 52.644 121.015 51.4453 119.523 50.7832L106.557 45.0273C102.199 43.0928 102.199 36.9072 106.557 34.9727L119.523 29.2168C121.015 28.5547 122.203 27.356 122.852 25.8584L128.452 12.9189Z" stroke="white"/>
</svg>
