<svg width="177" height="177" viewBox="0 0 177 177" fill="none" xmlns="http://www.w3.org/2000/svg">
<path d="M87 0.5C134.765 0.5 173.5 39.8908 173.5 88.5C173.5 137.109 134.765 176.5 87 176.5C39.2354 176.5 0.5 137.109 0.5 88.5C0.5 39.8908 39.2354 0.5 87 0.5Z" stroke="white"/>
<path d="M88.5 0L92.9866 73.0454L135.806 14.0491L100.535 77.9522L168.093 51.7358L104.263 86.2077L175.109 101.095L102.986 95.1911L154.628 146.455L97.1097 102.05L113.152 173.415L88.5 104.607L63.8484 173.415L79.8903 102.05L22.3719 146.455L74.0141 95.1911L1.89062 101.095L72.7371 86.2077L8.9072 51.7358L76.4647 77.9522L41.1939 14.0491L84.0134 73.0454L88.5 0Z" fill="url(#paint0_radial_563_1971)"/>
<defs>
<radialGradient id="paint0_radial_563_1971" cx="0" cy="0" r="1" gradientTransform="matrix(1.76028 88.7226 -87.72 1.78039 88.5733 88.5742)" gradientUnits="userSpaceOnUse">
<stop stop-color="white" stop-opacity="0"/>
<stop offset="0.777657" stop-color="white" stop-opacity="0"/>
<stop offset="1" stop-color="white"/>
</radialGradient>
</defs>
</svg>
