<svg width="176" height="176" viewBox="0 0 176 176" fill="none" xmlns="http://www.w3.org/2000/svg">
<path d="M87 7.50488C124.812 7.50488 155.495 39.2732 155.495 78.5C155.495 117.727 124.812 149.495 87 149.495C49.1878 149.495 18.5049 117.727 18.5049 78.5C18.5049 39.2732 49.1878 7.50488 87 7.50488Z" stroke="white" stroke-width="1.00914"/>
<path opacity="0.37" d="M107 26.5049C144.812 26.5049 175.495 58.2732 175.495 97.5C175.495 136.727 144.812 168.495 107 168.495C69.1878 168.495 38.5049 136.727 38.5049 97.5C38.5049 58.2732 69.1878 26.5049 107 26.5049Z" stroke="white" stroke-width="1.00914"/>
<path opacity="0.21" d="M69 26.5049C106.812 26.5049 137.495 58.2732 137.495 97.5C137.495 136.727 106.812 168.495 69 168.495C31.1878 168.495 0.504883 136.727 0.504883 97.5C0.504883 58.2732 31.1878 26.5049 69 26.5049Z" stroke="white" stroke-width="1.00914"/>
</svg>
